<svg width="182" height="96" viewBox="0 0 182 96" fill="none" xmlns="http://www.w3.org/2000/svg">
<rect width="4.13333" height="40" rx="2.06667" transform="matrix(-1 0 0 1 182 56)" fill="#FFB800"/>
<rect width="4.13333" height="80" rx="2.06667" transform="matrix(-1 0 0 1 175.867 16)" fill="#FFB800"/>
<rect width="4.13333" height="60" rx="2.06667" transform="matrix(-1 0 0 1 169.733 36)" fill="#FFB800"/>
<rect width="4.13333" height="45" rx="2.06667" transform="matrix(-1 0 0 1 163.6 51)" fill="#FFB800"/>
<rect width="4.13333" height="25" rx="2.06667" transform="matrix(-1 0 0 1 157.467 71)" fill="#FFB800"/>
<rect width="4.13333" height="35" rx="2.06667" transform="matrix(-1 0 0 1 151.333 61)" fill="#FFB800"/>
<rect width="4.13333" height="61" rx="2.06667" transform="matrix(-1 0 0 1 145.2 35)" fill="#FFB800"/>
<rect width="4.13333" height="82" rx="2.06667" transform="matrix(-1 0 0 1 139.067 14)" fill="#FFB800"/>
<rect width="4.13333" height="46" rx="2.06667" transform="matrix(-1 0 0 1 132.933 50)" fill="#FFB800"/>
<rect width="4.13333" height="56" rx="2.06667" transform="matrix(-1 0 0 1 126.8 40)" fill="#FFB800"/>
<rect width="4.13333" height="41" rx="2.06667" transform="matrix(-1 0 0 1 120.667 55)" fill="#FFB800"/>
<rect width="4.13333" height="87" rx="2.06667" transform="matrix(-1 0 0 1 114.533 9)" fill="#FFB800"/>
<rect width="4.13333" height="47" rx="2.06667" transform="matrix(-1 0 0 1 108.4 49)" fill="#FFB800"/>
<rect width="4.13333" height="21" rx="2.06667" transform="matrix(-1 0 0 1 102.267 75)" fill="#FFB800"/>
<rect width="4.13333" height="44" rx="2.06667" transform="matrix(-1 0 0 1 96.1334 52)" fill="#FFB800"/>
<rect width="4.13333" height="56" rx="2.06667" transform="matrix(-1 0 0 1 90 40)" fill="#FFB800"/>
<rect width="4.13333" height="51" rx="2.06667" transform="matrix(-1 0 0 1 83.8667 45)" fill="#FFB800"/>
<rect width="4.13333" height="84" rx="2.06667" transform="matrix(-1 0 0 1 77.7333 12)" fill="#FFB800"/>
<rect width="4.13333" height="88" rx="2.06667" transform="matrix(-1 0 0 1 71.6 8)" fill="#FFB800"/>
<rect width="4.13333" height="71" rx="2.06667" transform="matrix(-1 0 0 1 65.4667 25)" fill="#FFB800"/>
<rect width="4.13333" height="63" rx="2.06667" transform="matrix(-1 0 0 1 59.3334 33)" fill="#FFB800"/>
<rect width="4.13333" height="44" rx="2.06667" transform="matrix(-1 0 0 1 53.2 52)" fill="#FFB800"/>
<rect width="4.13333" height="78" rx="2.06667" transform="matrix(-1 0 0 1 47.0667 18)" fill="#FFB800"/>
<rect width="4.13333" height="77" rx="2.06667" transform="matrix(-1 0 0 1 40.9333 19)" fill="#FFB800"/>
<rect width="4.13333" height="71" rx="2.06667" transform="matrix(-1 0 0 1 34.8 25)" fill="#FFB800"/>
<rect width="4.13333" height="44" rx="2.06667" transform="matrix(-1 0 0 1 28.6667 52)" fill="#FFB800"/>
<rect width="4.13333" height="55" rx="2.06667" transform="matrix(-1 0 0 1 22.5334 41)" fill="#FFB800"/>
<rect width="4.13333" height="88" rx="2.06667" transform="matrix(-1 0 0 1 16.4 8)" fill="#FFB800"/>
<rect width="4.13333" height="66" rx="2.06667" transform="matrix(-1 0 0 1 10.2667 30)" fill="#FFB800"/>
<rect width="4.13333" height="45" rx="2.06667" transform="matrix(-1 0 0 1 4.13336 51)" fill="#FFB800"/>
</svg>
