<svg width="17" height="16" viewBox="0 0 17 16" fill="none" xmlns="http://www.w3.org/2000/svg">
<path d="M8.50001 1.33301C7.18147 1.33301 5.89254 1.724 4.79621 2.45654C3.69988 3.18909 2.8454 4.23028 2.34082 5.44845C1.83623 6.66663 1.70421 8.00707 1.96144 9.30028C2.21868 10.5935 2.85362 11.7814 3.78597 12.7137C4.71832 13.6461 5.9062 14.281 7.19941 14.5382C8.49262 14.7955 9.83306 14.6635 11.0512 14.1589C12.2694 13.6543 13.3106 12.7998 14.0431 11.7035C14.7757 10.6071 15.1667 9.31822 15.1667 7.99967C15.1667 7.1242 14.9942 6.25729 14.6592 5.44845C14.3242 4.63961 13.8331 3.90469 13.2141 3.28563C12.595 2.66657 11.8601 2.17551 11.0512 1.84048C10.2424 1.50545 9.37549 1.33301 8.50001 1.33301V1.33301ZM8.50001 13.333C7.44518 13.333 6.41403 13.0202 5.53697 12.4342C4.65991 11.8481 3.97632 11.0152 3.57266 10.0407C3.16899 9.06611 3.06337 7.99376 3.26916 6.95919C3.47495 5.92463 3.9829 4.97432 4.72878 4.22844C5.47466 3.48256 6.42497 2.97461 7.45953 2.76882C8.4941 2.56303 9.56645 2.66865 10.541 3.07232C11.5155 3.47598 12.3485 4.15957 12.9345 5.03663C13.5206 5.9137 13.8333 6.94484 13.8333 7.99967C13.8333 9.41416 13.2714 10.7707 12.2712 11.7709C11.2711 12.7711 9.9145 13.333 8.50001 13.333V13.333Z" fill="#3F69EB"/>
<path d="M10.3 5.59313L7.78001 8.92646L6.69335 7.51979C6.58461 7.38011 6.42484 7.28935 6.24918 7.26747C6.07352 7.24559 5.89636 7.29439 5.75668 7.40312C5.617 7.51186 5.52624 7.67164 5.50436 7.8473C5.48248 8.02296 5.53128 8.20011 5.64001 8.33979L7.26001 10.4131C7.3228 10.4926 7.40285 10.5567 7.49411 10.6006C7.58536 10.6445 7.68542 10.667 7.78668 10.6665C7.88849 10.6662 7.9889 10.6427 8.08019 10.5976C8.17148 10.5525 8.25124 10.4871 8.31335 10.4065L11.36 6.40646C11.4679 6.26501 11.5151 6.08651 11.4914 5.91023C11.4676 5.73394 11.3748 5.57431 11.2333 5.46646C11.0919 5.3586 10.9134 5.31136 10.7371 5.33511C10.5608 5.35887 10.4012 5.45168 10.2933 5.59313H10.3Z" fill="#3F69EB"/>
</svg>
