<svg width="17" height="16" viewBox="0 0 17 16" fill="none" xmlns="http://www.w3.org/2000/svg">
<path d="M9.43996 7.9998L12.3066 5.1398C12.4322 5.01426 12.5027 4.844 12.5027 4.66646C12.5027 4.48893 12.4322 4.31867 12.3066 4.19313C12.1811 4.0676 12.0108 3.99707 11.8333 3.99707C11.6558 3.99707 11.4855 4.0676 11.36 4.19313L8.49996 7.0598L5.63996 4.19313C5.51442 4.0676 5.34416 3.99707 5.16663 3.99707C4.98909 3.99707 4.81883 4.0676 4.69329 4.19313C4.56776 4.31867 4.49723 4.48893 4.49723 4.66646C4.49723 4.844 4.56776 5.01426 4.69329 5.1398L7.55996 7.9998L4.69329 10.8598C4.63081 10.9218 4.58121 10.9955 4.54737 11.0767C4.51352 11.158 4.49609 11.2451 4.49609 11.3331C4.49609 11.4211 4.51352 11.5083 4.54737 11.5895C4.58121 11.6708 4.63081 11.7445 4.69329 11.8065C4.75527 11.8689 4.829 11.9185 4.91024 11.9524C4.99148 11.9862 5.07862 12.0037 5.16663 12.0037C5.25463 12.0037 5.34177 11.9862 5.42301 11.9524C5.50425 11.9185 5.57798 11.8689 5.63996 11.8065L8.49996 8.9398L11.36 11.8065C11.4219 11.8689 11.4957 11.9185 11.5769 11.9524C11.6581 11.9862 11.7453 12.0037 11.8333 12.0037C11.9213 12.0037 12.0084 11.9862 12.0897 11.9524C12.1709 11.9185 12.2446 11.8689 12.3066 11.8065C12.3691 11.7445 12.4187 11.6708 12.4526 11.5895C12.4864 11.5083 12.5038 11.4211 12.5038 11.3331C12.5038 11.2451 12.4864 11.158 12.4526 11.0767C12.4187 10.9955 12.3691 10.9218 12.3066 10.8598L9.43996 7.9998Z" fill="#3F69EB"/>
</svg>
