<svg width="16" height="16" viewBox="0 0 16 16" fill="none" xmlns="http://www.w3.org/2000/svg">
<path d="M13.3333 7.88667C13.1565 7.88667 12.987 7.9569 12.8619 8.08193C12.7369 8.20695 12.6667 8.37652 12.6667 8.55333V12.2667C12.6667 12.3728 12.6245 12.4745 12.5495 12.5495C12.4745 12.6245 12.3728 12.6667 12.2667 12.6667H3.73333C3.62725 12.6667 3.52551 12.6245 3.45049 12.5495C3.37548 12.4745 3.33333 12.3728 3.33333 12.2667V3.73333C3.33333 3.62725 3.37548 3.52551 3.45049 3.45049C3.52551 3.37548 3.62725 3.33333 3.73333 3.33333H10.1133C10.2901 3.33333 10.4597 3.2631 10.5847 3.13807C10.7098 3.01305 10.78 2.84348 10.78 2.66667C10.78 2.48986 10.7098 2.32029 10.5847 2.19526C10.4597 2.07024 10.2901 2 10.1133 2H3.73333C3.27417 2.00176 2.8343 2.18494 2.50962 2.50962C2.18494 2.8343 2.00176 3.27417 2 3.73333V12.2667C2.00176 12.7258 2.18494 13.1657 2.50962 13.4904C2.8343 13.8151 3.27417 13.9982 3.73333 14H12.2667C12.7258 13.9982 13.1657 13.8151 13.4904 13.4904C13.8151 13.1657 13.9982 12.7258 14 12.2667V8.55333C14 8.37652 13.9298 8.20695 13.8047 8.08193C13.6797 7.9569 13.5101 7.88667 13.3333 7.88667Z" fill="white"/>
<path d="M7.14664 7.33354C7.02154 7.22103 6.85852 7.15998 6.69029 7.16265C6.52205 7.16531 6.36105 7.23149 6.23958 7.34791C6.1181 7.46432 6.04514 7.62236 6.03532 7.79033C6.0255 7.95829 6.07955 8.12376 6.18664 8.25354L7.66664 9.80687C7.7286 9.87187 7.80306 9.92368 7.88554 9.9592C7.96803 9.99471 8.05684 10.0132 8.14664 10.0135C8.23597 10.0141 8.32449 9.99662 8.40694 9.96226C8.4894 9.92791 8.56411 9.87733 8.62664 9.81354L13.1466 5.14687C13.2079 5.08383 13.2562 5.00935 13.2887 4.92766C13.3212 4.84597 13.3373 4.75868 13.336 4.67077C13.3348 4.58287 13.3163 4.49607 13.2815 4.41533C13.2467 4.33459 13.1963 4.26149 13.1333 4.2002C13.0703 4.13892 12.9958 4.09065 12.9141 4.05816C12.8324 4.02566 12.7451 4.00957 12.6572 4.01081C12.5693 4.01205 12.4825 4.03059 12.4018 4.06537C12.321 4.10016 12.2479 4.1505 12.1866 4.21354L8.1533 8.38687L7.14664 7.33354Z" fill="white"/>
</svg>
