<svg width="17" height="16" viewBox="0 0 17 16" fill="none" xmlns="http://www.w3.org/2000/svg">
<path d="M8.50001 1.33301C7.18147 1.33301 5.89254 1.724 4.79621 2.45654C3.69988 3.18909 2.8454 4.23028 2.34082 5.44845C1.83623 6.66663 1.70421 8.00707 1.96144 9.30028C2.21868 10.5935 2.85362 11.7814 3.78597 12.7137C4.71832 13.6461 5.9062 14.281 7.19941 14.5382C8.49262 14.7955 9.83306 14.6635 11.0512 14.1589C12.2694 13.6543 13.3106 12.7998 14.0431 11.7035C14.7757 10.6071 15.1667 9.31822 15.1667 7.99967C15.1667 7.1242 14.9942 6.25729 14.6592 5.44845C14.3242 4.63961 13.8331 3.90469 13.2141 3.28563C12.595 2.66657 11.8601 2.17551 11.0512 1.84048C10.2424 1.50545 9.37549 1.33301 8.50001 1.33301V1.33301ZM8.50001 13.333C7.44518 13.333 6.41403 13.0202 5.53697 12.4342C4.65991 11.8481 3.97632 11.0152 3.57266 10.0407C3.16899 9.06611 3.06337 7.99376 3.26916 6.95919C3.47495 5.92463 3.9829 4.97432 4.72878 4.22844C5.47466 3.48256 6.42497 2.97461 7.45953 2.76882C8.4941 2.56303 9.56645 2.66865 10.541 3.07232C11.5155 3.47598 12.3485 4.15957 12.9345 5.03663C13.5206 5.9137 13.8333 6.94484 13.8333 7.99967C13.8333 9.41416 13.2714 10.7707 12.2712 11.7709C11.2711 12.7711 9.9145 13.333 8.50001 13.333V13.333Z" fill="#EE7878"/>
<path d="M10.3067 6.19329C10.2447 6.13081 10.1709 6.08121 10.0897 6.04737C10.0085 6.01352 9.92133 5.99609 9.83332 5.99609C9.74532 5.99609 9.65818 6.01352 9.57694 6.04737C9.4957 6.08121 9.42196 6.13081 9.35999 6.19329L8.49999 7.05996L7.63999 6.19329C7.51445 6.06776 7.34419 5.99723 7.16666 5.99723C6.98912 5.99723 6.81886 6.06776 6.69332 6.19329C6.56779 6.31883 6.49726 6.48909 6.49726 6.66663C6.49726 6.84416 6.56779 7.01442 6.69332 7.13996L7.55999 7.99996L6.69332 8.85996C6.63084 8.92193 6.58124 8.99567 6.5474 9.07691C6.51355 9.15815 6.49612 9.24528 6.49612 9.33329C6.49612 9.4213 6.51355 9.50844 6.5474 9.58968C6.58124 9.67092 6.63084 9.74465 6.69332 9.80663C6.7553 9.86911 6.82903 9.91871 6.91027 9.95255C6.99151 9.9864 7.07865 10.0038 7.16666 10.0038C7.25466 10.0038 7.3418 9.9864 7.42304 9.95255C7.50428 9.91871 7.57801 9.86911 7.63999 9.80663L8.49999 8.93996L9.35999 9.80663C9.42196 9.86911 9.4957 9.91871 9.57694 9.95255C9.65818 9.9864 9.74532 10.0038 9.83332 10.0038C9.92133 10.0038 10.0085 9.9864 10.0897 9.95255C10.1709 9.91871 10.2447 9.86911 10.3067 9.80663C10.3691 9.74465 10.4187 9.67092 10.4526 9.58968C10.4864 9.50844 10.5039 9.4213 10.5039 9.33329C10.5039 9.24528 10.4864 9.15815 10.4526 9.07691C10.4187 8.99567 10.3691 8.92193 10.3067 8.85996L9.43999 7.99996L10.3067 7.13996C10.3691 7.07798 10.4187 7.00425 10.4526 6.92301C10.4864 6.84177 10.5039 6.75463 10.5039 6.66663C10.5039 6.57862 10.4864 6.49148 10.4526 6.41024C10.4187 6.329 10.3691 6.25527 10.3067 6.19329V6.19329Z" fill="#EE7878"/>
</svg>
