<svg width="182" height="96" viewBox="0 0 182 96" fill="none" xmlns="http://www.w3.org/2000/svg">
<rect y="56" width="4.13333" height="40" rx="2.06667" fill="#3F69EB"/>
<rect x="6.13333" y="16" width="4.13333" height="80" rx="2.06667" fill="#3F69EB"/>
<rect x="12.2667" y="36" width="4.13333" height="60" rx="2.06667" fill="#3F69EB"/>
<rect x="18.4" y="51" width="4.13333" height="45" rx="2.06667" fill="#3F69EB"/>
<rect x="24.5333" y="71" width="4.13333" height="25" rx="2.06667" fill="#3F69EB"/>
<rect x="30.6667" y="61" width="4.13333" height="35" rx="2.06667" fill="#3F69EB"/>
<rect x="36.8" y="35" width="4.13333" height="61" rx="2.06667" fill="#3F69EB"/>
<rect x="42.9333" y="14" width="4.13333" height="82" rx="2.06667" fill="#3F69EB"/>
<rect x="49.0667" y="50" width="4.13333" height="46" rx="2.06667" fill="#3F69EB"/>
<rect x="55.2" y="40" width="4.13333" height="56" rx="2.06667" fill="#3F69EB"/>
<rect x="61.3333" y="55" width="4.13333" height="41" rx="2.06667" fill="#3F69EB"/>
<rect x="67.4667" y="9" width="4.13333" height="87" rx="2.06667" fill="#3F69EB"/>
<rect x="73.6" y="49" width="4.13333" height="47" rx="2.06667" fill="#3F69EB"/>
<rect x="79.7333" y="75" width="4.13333" height="21" rx="2.06667" fill="#3F69EB"/>
<rect x="85.8667" y="52" width="4.13333" height="44" rx="2.06667" fill="#3F69EB"/>
<rect x="92" y="40" width="4.13333" height="56" rx="2.06667" fill="#3F69EB"/>
<rect x="98.1333" y="45" width="4.13333" height="51" rx="2.06667" fill="#3F69EB"/>
<rect x="104.267" y="12" width="4.13333" height="84" rx="2.06667" fill="#3F69EB"/>
<rect x="110.4" y="8" width="4.13333" height="88" rx="2.06667" fill="#3F69EB"/>
<rect x="116.533" y="25" width="4.13333" height="71" rx="2.06667" fill="#3F69EB"/>
<rect x="122.667" y="33" width="4.13333" height="63" rx="2.06667" fill="#3F69EB"/>
<rect x="128.8" y="52" width="4.13333" height="44" rx="2.06667" fill="#3F69EB"/>
<rect x="134.933" y="18" width="4.13333" height="78" rx="2.06667" fill="#3F69EB"/>
<rect x="141.067" y="19" width="4.13333" height="77" rx="2.06667" fill="#3F69EB"/>
<rect x="147.2" y="25" width="4.13333" height="71" rx="2.06667" fill="#3F69EB"/>
<rect x="153.333" y="52" width="4.13333" height="44" rx="2.06667" fill="#3F69EB"/>
<rect x="159.467" y="41" width="4.13333" height="55" rx="2.06667" fill="#3F69EB"/>
<rect x="165.6" y="30" width="4.13333" height="66" rx="2.06667" fill="#3F69EB"/>
<rect x="171.733" y="8" width="4.13333" height="88" rx="2.06667" fill="#3F69EB"/>
<rect x="177.867" y="6" width="4.13333" height="90" rx="2.06667" fill="#3F69EB"/>
</svg>
