<svg width="96" height="96" viewBox="0 0 96 96" fill="none" xmlns="http://www.w3.org/2000/svg">
<rect width="96" height="96" rx="48" fill="#FAFAFA"/>
<g clip-path="url(#clip0_2863_8670)">
<path fill-rule="evenodd" clip-rule="evenodd" d="M26.208 28.5153C26.208 28.5399 26.1432 28.56 26.064 28.56C25.9848 28.56 25.92 28.5816 25.92 28.608C25.92 28.6344 25.8552 28.656 25.776 28.656C25.6968 28.656 25.632 28.6776 25.632 28.704C25.632 28.7304 25.5888 28.752 25.536 28.752C25.4832 28.752 25.44 28.77 25.44 28.7918C25.44 28.8138 25.3806 28.8621 25.308 28.8992C25.2354 28.9363 25.1274 29.0167 25.068 29.0778C25.0086 29.1389 24.96 29.1747 24.96 29.1573C24.96 29.1281 24.8773 29.2136 24.576 29.555C24.51 29.6298 24.4254 29.7497 24.3878 29.8214C24.3504 29.8933 24.3018 29.952 24.2798 29.952C24.258 29.952 24.24 30.0047 24.24 30.0691C24.24 30.1335 24.2184 30.1997 24.192 30.216C24.1656 30.2323 24.144 30.2858 24.144 30.3348C24.144 30.3839 24.117 30.4329 24.084 30.444C24.0367 30.4597 24.0211 31.3675 24.0106 34.7199L23.997 38.976H48H72.003L71.9894 34.7199C71.9789 31.3675 71.9633 30.4597 71.916 30.444C71.883 30.4329 71.856 30.3609 71.856 30.284C71.856 30.207 71.8344 30.144 71.808 30.144C71.7816 30.144 71.76 30.1008 71.76 30.048C71.76 29.9952 71.742 29.952 71.7202 29.952C71.6982 29.952 71.6497 29.8926 71.6124 29.82C71.5752 29.7474 71.5067 29.6531 71.4604 29.6103C71.4139 29.5676 71.376 29.5173 71.376 29.4986C71.376 29.4302 70.8284 28.944 70.7514 28.944C70.7254 28.944 70.704 28.9224 70.704 28.896C70.704 28.8696 70.6716 28.848 70.632 28.848C70.5924 28.848 70.56 28.8264 70.56 28.8C70.56 28.7736 70.5168 28.752 70.464 28.752C70.4112 28.752 70.368 28.7304 70.368 28.704C70.368 28.6776 70.3032 28.656 70.224 28.656C70.1448 28.656 70.08 28.6344 70.08 28.608C70.08 28.5816 70.0152 28.56 69.936 28.56C69.8568 28.56 69.792 28.5399 69.792 28.5153C69.792 28.4879 61.4009 28.4707 48 28.4707C34.5991 28.4707 26.208 28.4879 26.208 28.5153Z" fill="#EE7878"/>
<path fill-rule="evenodd" clip-rule="evenodd" d="M51.3833 50.0042C51.2508 50.1031 51.0024 50.2801 50.8313 50.3975C50.66 50.5148 50.5092 50.6243 50.496 50.6406C50.4828 50.6569 50.364 50.7432 50.232 50.8323C50.1 50.9215 49.9848 51.0119 49.976 51.0332C49.9671 51.0546 49.9311 51.072 49.896 51.072C49.8608 51.072 49.8248 51.0893 49.8159 51.1103C49.8072 51.1313 49.6272 51.2663 49.416 51.4103C49.2048 51.5543 49.0104 51.6899 48.984 51.7117C48.9576 51.7335 48.8354 51.8199 48.7127 51.9037C48.3026 52.1833 47.3528 52.868 47.2885 52.9304C47.2537 52.9643 47.2067 52.992 47.184 52.992C47.1613 52.992 47.1143 53.0197 47.0795 53.0535C47.0445 53.0874 46.9404 53.1674 46.848 53.2313C46.7556 53.2951 46.6692 53.3592 46.656 53.3737C46.6428 53.3881 46.5967 53.4216 46.5537 53.448C46.4667 53.5014 46.3041 53.6149 45.36 54.2822C45.0036 54.5341 44.7012 54.7518 44.688 54.7661C44.6748 54.7803 44.6289 54.8136 44.5861 54.84C44.4329 54.9345 43.8955 55.3134 43.872 55.3435C43.8588 55.3604 43.74 55.4469 43.608 55.5357C43.0832 55.8885 41.949 56.702 41.9228 56.7443C41.8999 56.7813 41.6898 57.9301 41.424 59.472C41.3945 59.6436 41.3515 59.8812 41.3287 60C41.3059 60.1188 41.2624 60.3564 41.232 60.528C41.2016 60.6996 41.1584 60.9372 41.136 61.056C41.1136 61.1748 41.0711 61.4124 41.0414 61.584C41.0118 61.7556 40.967 62.0094 40.9418 62.148C40.9166 62.2866 40.8753 62.5134 40.8501 62.652C40.8249 62.7906 40.7808 63.0444 40.752 63.216C40.6934 63.5648 40.6375 63.8798 40.5648 64.272C40.443 64.9277 40.4472 64.9435 40.7083 64.8056C40.7983 64.7581 42.0816 64.1075 43.56 63.3598C45.0384 62.6119 46.6433 61.7996 47.1264 61.5545L48.0047 61.1089L49.4784 61.8556C50.2889 62.2662 51.971 63.1187 53.2166 63.75C54.4622 64.3812 55.4907 64.8811 55.5024 64.8608C55.5236 64.824 55.478 64.4591 55.3959 64.008C55.3718 63.876 55.3298 63.6384 55.3025 63.48C55.2751 63.3216 55.2301 63.0678 55.2024 62.916C55.1747 62.7642 55.1304 62.5212 55.104 62.376C55.0776 62.2308 55.0344 61.9932 55.008 61.848C54.8885 61.1909 54.8557 61.0049 54.7881 60.6C54.7485 60.3624 54.5994 59.52 54.4567 58.728C54.3141 57.936 54.1831 57.1788 54.1657 57.0453L54.1341 56.8026L54.7221 56.2533C55.3514 55.6655 55.3998 55.62 56.0193 55.032C56.9089 54.1878 57.8911 53.2645 57.9945 53.1753C58.0548 53.1234 58.266 52.9267 58.464 52.7382C58.662 52.5497 58.9866 52.2434 59.1853 52.0577C60.4044 50.9183 60.3572 51.0073 59.784 50.9288C59.5728 50.8999 59.2488 50.8548 59.064 50.8285C58.8792 50.8022 58.5768 50.7606 58.392 50.736C58.2072 50.7114 57.9048 50.6696 57.72 50.6431C57.5352 50.6166 57.2112 50.5712 57 50.5422C56.7888 50.5133 56.4756 50.4696 56.304 50.4451C55.9877 50.4001 55.6117 50.3478 54.96 50.258C54.762 50.2308 54.4596 50.1883 54.288 50.1635C53.1735 50.0027 51.8239 49.824 51.7255 49.8242C51.6697 49.8243 51.5156 49.9053 51.3833 50.0042Z" fill="#3F69EB"/>
<path fill-rule="evenodd" clip-rule="evenodd" d="M24 55.512V72H43.068H62.136L62.1233 67.1218C62.1139 63.5044 62.1248 62.2264 62.1658 62.177C62.2121 62.1211 62.9947 62.1127 67.1105 62.1233L72 62.136V50.58V39.024H48H24V55.512ZM48.3169 43.0208C48.4516 43.2909 48.7943 43.9656 49.0784 44.52C49.9013 46.1251 50.5865 47.4631 51.168 48.6C51.8132 49.8617 51.7355 49.7558 52.0444 49.7926C52.1827 49.809 52.4472 49.8445 52.632 49.8715C52.8168 49.8984 53.2164 49.9524 53.52 49.9913C53.8236 50.0303 54.3744 50.107 54.744 50.1617C55.1136 50.2165 55.578 50.2824 55.776 50.3081C55.974 50.3339 56.2872 50.3766 56.472 50.4031C56.6568 50.4296 56.97 50.4737 57.168 50.501C57.366 50.5284 57.6576 50.5693 57.816 50.592C57.9744 50.6147 58.2768 50.658 58.488 50.6882C59.1769 50.7869 59.5145 50.8314 59.8547 50.8684C60.4908 50.9376 60.4877 50.9438 59.2319 52.0991C58.9243 52.382 58.0189 53.2309 57.4092 53.808C57.3116 53.9004 56.9773 54.2136 56.6664 54.504C56.3555 54.7944 55.9993 55.1292 55.8749 55.248C55.7504 55.3668 55.3502 55.7448 54.9857 56.088C54.621 56.4312 54.2946 56.7391 54.2604 56.7724C54.1922 56.8384 54.1957 56.8782 54.3439 57.744C54.3959 58.0476 54.4604 58.4256 54.4873 58.584C54.5142 58.7424 54.5542 58.9692 54.576 59.088C54.652 59.5006 54.7291 59.9294 54.7724 60.18C54.8152 60.4272 54.8616 60.6852 54.9626 61.236C54.9904 61.3878 55.0248 61.62 55.039 61.752C55.0532 61.884 55.0844 62.0125 55.1084 62.0376C55.1324 62.0627 55.152 62.1826 55.152 62.304C55.152 62.4254 55.1716 62.5453 55.1956 62.5704C55.2196 62.5955 55.2508 62.724 55.265 62.856C55.2792 62.988 55.3136 63.2202 55.3414 63.372C55.4261 63.8341 55.4858 64.1636 55.5326 64.428C55.5572 64.5666 55.5917 64.7369 55.6092 64.8064C55.627 64.8769 55.6193 64.9462 55.5917 64.9632C55.543 64.9933 52.1669 63.3216 52.136 63.252C52.1272 63.2322 52.0786 63.216 52.028 63.216C51.9774 63.216 51.936 63.1944 51.936 63.168C51.936 63.1416 51.8946 63.12 51.844 63.12C51.7934 63.12 51.7448 63.1038 51.736 63.084C51.7272 63.0642 50.9856 62.6818 50.088 62.234C49.1904 61.7863 48.402 61.3842 48.336 61.3403C48.0605 61.1573 48.0862 61.1485 46.3308 62.0243C45.414 62.4816 44.6532 62.8667 44.64 62.8799C44.5844 62.9358 44.3962 63.024 44.3327 63.024C44.2949 63.024 44.2568 63.0406 44.248 63.0607C44.2392 63.0809 43.8432 63.2928 43.368 63.5317C42.8928 63.7705 42.0432 64.1987 41.48 64.483C40.9168 64.7674 40.4459 64.9898 40.4334 64.9775C40.3964 64.9404 40.4053 64.794 40.4647 64.464C40.4956 64.2924 40.5404 64.0386 40.5644 63.9C40.5884 63.7614 40.6296 63.5292 40.656 63.384C40.6824 63.2388 40.7256 63.0012 40.752 62.856C40.7784 62.7108 40.8216 62.4732 40.848 62.328C40.8744 62.1828 40.9188 61.9398 40.9466 61.788C40.9744 61.6362 41.0088 61.404 41.023 61.272C41.0372 61.14 41.0684 61.0115 41.0924 60.9864C41.1164 60.9613 41.136 60.8414 41.136 60.72C41.136 60.5986 41.1556 60.4787 41.1796 60.4536C41.2036 60.4285 41.2348 60.3 41.249 60.168C41.2632 60.036 41.2976 59.8038 41.3254 59.652C41.3532 59.5002 41.3976 59.2572 41.424 59.112C41.4504 58.9668 41.4936 58.7292 41.52 58.584C41.5464 58.4388 41.5874 58.2066 41.6111 58.068C41.6348 57.9294 41.6656 57.7728 41.6794 57.72C41.81 57.2222 41.821 56.7925 41.7058 56.6808C41.6419 56.6188 41.2662 56.2656 40.8708 55.896C40.4755 55.5264 40.1191 55.1916 40.079 55.152C40.039 55.1124 39.8446 54.9298 39.647 54.746C39.4495 54.5624 39.0824 54.2168 38.8313 53.978C38.58 53.7394 38.0848 53.274 37.7306 52.944C37.3765 52.614 37.02 52.2792 36.9384 52.2C36.8567 52.1208 36.5478 51.832 36.2518 51.5581C35.64 50.9922 35.6452 51.011 36.0818 50.9364C36.3912 50.8836 36.6548 50.8465 38.712 50.5667C39.1872 50.5021 39.7164 50.4275 39.888 50.4011C40.182 50.3557 40.4183 50.3226 41.28 50.2055C41.478 50.1786 41.7804 50.1367 41.952 50.1125C42.1236 50.0882 42.4152 50.0473 42.6 50.0215C42.7848 49.9957 43.1088 49.9505 43.32 49.9208C43.5312 49.8913 43.8242 49.8445 43.9712 49.8168L44.2386 49.7666L44.6478 48.9673C45.7656 46.7839 46.2275 45.8829 46.6571 45.048C46.9152 44.5464 47.2992 43.7971 47.5105 43.383C47.7218 42.9687 47.9089 42.6069 47.9262 42.579C47.9996 42.4599 48.0858 42.5574 48.3169 43.0208ZM70.1038 64.1282C69.979 64.2661 70.0344 64.2816 70.1657 64.1455C70.226 64.0831 70.2564 64.032 70.2331 64.032C70.2098 64.032 70.1516 64.0753 70.1038 64.1282ZM64.1038 70.1282C63.979 70.2661 64.0344 70.2816 64.1657 70.1455C64.226 70.0831 64.2564 70.032 64.2331 70.032C64.2098 70.032 64.1516 70.0753 64.1038 70.1282Z" fill="#F6FAFF"/>
<path fill-rule="evenodd" clip-rule="evenodd" d="M30.828 24.0317C30.7686 24.0443 30.72 24.0733 30.72 24.0961C30.72 24.1189 30.6757 24.1515 30.6216 24.1687C30.4945 24.209 30.209 24.4945 30.1687 24.6216C30.1516 24.6757 30.1174 24.72 30.0928 24.72C30.0682 24.72 30.048 24.7619 30.048 24.8131C30.048 24.8643 30.0264 24.9197 30 24.936C29.9694 24.9548 29.952 25.6002 29.952 26.7139V28.4622L30.06 28.4885C30.1194 28.503 30.8052 28.5089 31.584 28.5014L33 28.488L33.0126 26.76C33.0247 25.1058 33.0211 25.0215 32.9256 24.7862C32.834 24.5605 32.4637 24.144 32.3548 24.144C32.3312 24.144 32.303 24.117 32.292 24.084C32.2718 24.0233 31.0696 23.9803 30.828 24.0317ZM63.7457 24.0817C63.4859 24.2133 63.2226 24.4813 63.0931 24.7457L62.9748 24.9875L62.9874 26.7377L63 28.488H64.512H66.024L66.0366 26.7C66.0449 25.5174 66.0327 24.912 66.0006 24.912C65.9738 24.912 65.952 24.8688 65.952 24.816C65.952 24.7632 65.9304 24.72 65.904 24.72C65.8776 24.72 65.856 24.6918 65.856 24.6573C65.856 24.5839 65.5516 24.24 65.4865 24.24C65.4622 24.24 65.3899 24.1914 65.3262 24.132C65.1649 23.9816 64.0153 23.945 63.7457 24.0817Z" fill="#CCCCCC"/>
<path fill-rule="evenodd" clip-rule="evenodd" d="M62.1696 62.1696C62.1022 62.237 62.0854 71.8358 62.1526 71.9417C62.1752 71.9774 62.2273 71.9896 62.2765 71.9708C62.4236 71.9142 63.12 71.1799 63.12 71.0813C63.12 71.0497 63.1343 71.0384 63.1517 71.0558C63.1692 71.0732 63.2664 71.0003 63.3677 70.8938C63.4691 70.7872 63.552 70.7121 63.552 70.7267C63.552 70.7415 63.6546 70.6431 63.78 70.5079C64.0662 70.1997 64.1997 70.0662 64.5079 69.78C64.6431 69.6546 64.7415 69.552 64.7267 69.552C64.7121 69.552 64.7872 69.4691 64.8937 69.3677C65.0003 69.2664 65.0731 69.1692 65.0557 69.1517C65.0383 69.1343 65.0497 69.12 65.0813 69.12C65.1129 69.12 65.2167 69.0498 65.3122 68.964C65.5978 68.7073 66.0489 68.256 66.0197 68.256C66.0048 68.256 66.0645 68.1967 66.1523 68.1241C66.2401 68.0517 66.4092 67.8901 66.528 67.7652C66.7913 67.4883 67.4259 66.8541 67.752 66.5418C67.884 66.4155 68.0514 66.2401 68.124 66.1523C68.1966 66.0645 68.256 66.0048 68.256 66.0197C68.256 66.0489 68.7073 65.5978 68.964 65.3122C69.0498 65.2167 69.12 65.1129 69.12 65.0813C69.12 65.0497 69.1343 65.0383 69.1517 65.0557C69.1692 65.0731 69.2664 65.0003 69.3677 64.8937C69.4691 64.7872 69.552 64.7121 69.552 64.7267C69.552 64.7415 69.6546 64.6431 69.78 64.5079C70.0662 64.1997 70.1997 64.0662 70.5079 63.78C70.6431 63.6546 70.7415 63.552 70.7267 63.552C70.7121 63.552 70.7872 63.4691 70.8938 63.3677C71.0003 63.2664 71.0732 63.1692 71.0558 63.1517C71.0384 63.1343 71.0497 63.12 71.0813 63.12C71.1799 63.12 71.9142 62.4236 71.9708 62.2765C71.9896 62.2273 71.9774 62.1752 71.9417 62.1526C71.8358 62.0854 62.237 62.1022 62.1696 62.1696Z" fill="#D3DAE2"/>
<path fill-rule="evenodd" clip-rule="evenodd" d="M35.988 39.012C42.5946 39.0187 53.4054 39.0187 60.012 39.012C66.6186 39.0053 61.2132 38.9998 48 38.9998C34.7868 38.9998 29.3814 39.0053 35.988 39.012ZM47.9115 42.612C47.6141 43.1807 46.4718 45.4084 45.4809 47.352C45.1713 47.9592 44.7643 48.7523 44.5765 49.1143L44.235 49.7725L44.0032 49.8223C43.8756 49.8497 43.72 49.872 43.6573 49.872C43.5946 49.872 43.4391 49.8926 43.3117 49.9178C43.1843 49.943 42.8856 49.9876 42.648 50.0167C42.4104 50.0459 42.0972 50.089 41.952 50.1124C41.8068 50.1359 41.5152 50.1787 41.304 50.2076C41.0928 50.2364 40.758 50.2823 40.56 50.3094C40.362 50.3365 40.0596 50.3792 39.888 50.4043C39.7164 50.4294 38.7232 50.5691 37.6809 50.7145C36.6385 50.8601 35.7684 50.9964 35.7473 51.0175C35.7262 51.0386 35.823 51.1604 35.9625 51.2881C36.1019 51.4159 36.3564 51.652 36.528 51.8128C36.6996 51.9736 37.1964 52.439 37.632 52.847C38.0676 53.255 38.6292 53.784 38.88 54.0224C39.1308 54.2609 39.66 54.7582 40.056 55.1275C40.452 55.497 40.9272 55.9422 41.112 56.1169C41.2968 56.2918 41.529 56.5078 41.628 56.597C41.7768 56.7312 41.8087 56.7928 41.8119 56.9516L41.8157 57.144L41.8719 56.9303C41.9334 56.6959 41.9377 56.6923 43.248 55.7874C43.578 55.5595 43.8588 55.3595 43.872 55.3429C43.8958 55.313 44.4367 54.9322 44.5861 54.84C44.629 54.8136 44.6748 54.7804 44.688 54.7661C44.7012 54.7518 45.0036 54.5341 45.36 54.2822C46.3042 53.6149 46.4668 53.5014 46.5538 53.448C46.5967 53.4216 46.6428 53.3881 46.656 53.3737C46.6692 53.3592 46.7556 53.2951 46.848 53.2313C46.9404 53.1674 47.0446 53.0874 47.0795 53.0536C47.1143 53.0197 47.1613 52.992 47.184 52.992C47.2067 52.992 47.2537 52.9643 47.2885 52.9304C47.3529 52.868 48.3027 52.1833 48.7127 51.9037C48.8355 51.82 48.9576 51.7336 48.984 51.7117C49.0104 51.6899 49.2048 51.5543 49.416 51.4103C49.6272 51.2663 49.8072 51.1313 49.816 51.1103C49.8249 51.0893 49.8609 51.072 49.896 51.072C49.9312 51.072 49.9672 51.0546 49.9761 51.0332C49.9848 51.0119 50.1 50.9215 50.232 50.8324C50.364 50.7432 50.4828 50.6569 50.496 50.6406C50.5092 50.6243 50.6601 50.5148 50.8313 50.3975C51.0024 50.2801 51.2508 50.1017 51.3833 50.0011C51.6207 49.8209 51.6287 49.8187 51.96 49.8439C52.1794 49.8606 52.2627 49.8545 52.2 49.8262C52.1472 49.8023 52.0365 49.7813 51.9539 49.7794C51.7456 49.7747 51.8969 50.0402 50.133 46.584C49.7153 45.7656 49.1836 44.7288 48.9514 44.28C48.7192 43.8312 48.4264 43.2539 48.3006 42.9971C48.0724 42.5309 47.9943 42.4536 47.9115 42.612ZM52.56 49.9224C52.6788 49.9436 52.83 49.9603 52.896 49.9596L53.016 49.9584L52.896 49.92C52.83 49.8989 52.6788 49.8821 52.56 49.8828L52.344 49.884L52.56 49.9224ZM53.28 50.0161C53.3988 50.0366 53.6904 50.0794 53.928 50.1109C54.1656 50.1425 54.4637 50.1881 54.5904 50.2122C54.8148 50.2549 55.1759 50.2675 55.08 50.2292C54.9952 50.1954 53.3091 49.9678 53.1844 49.9734C53.1181 49.9763 53.1611 49.9955 53.28 50.0161ZM55.2107 50.2828C55.2255 50.2974 55.4073 50.33 55.6147 50.3552C55.8222 50.3804 56.1324 50.4209 56.304 50.4452C56.4756 50.4696 56.7888 50.5133 57 50.5422C57.2112 50.5712 57.5352 50.6166 57.72 50.6431C57.9048 50.6696 58.2072 50.7114 58.392 50.736C58.5768 50.7606 58.8792 50.8022 59.064 50.8285C59.2488 50.8548 59.5728 50.8999 59.784 50.9288C60.3573 51.0073 60.4044 50.9183 59.1853 52.0577C58.9866 52.2434 58.662 52.5497 58.464 52.7382C58.266 52.9267 58.0548 53.1234 57.9946 53.1754C57.8911 53.2645 56.9089 54.1878 56.0194 55.032C55.3998 55.62 55.3513 55.6656 54.7234 56.2522L54.1365 56.8004L54.1678 57.0682C54.2129 57.4553 54.2946 57.7625 54.2645 57.432C54.2525 57.3 54.2287 57.1126 54.2116 57.0155C54.1858 56.8686 54.1998 56.8204 54.2958 56.7275C54.4216 56.6057 55.5743 55.5206 56.1792 54.9547C56.3878 54.7596 56.6381 54.5244 56.7355 54.432C56.833 54.3396 57.1895 54.0048 57.5278 53.688C57.8661 53.3712 58.2441 53.0148 58.3678 52.896C58.5882 52.6842 59.5095 51.8201 60.0647 51.3043C60.4067 50.9867 60.379 50.9377 59.8193 50.8705C59.6151 50.846 59.3076 50.8063 59.136 50.7824C58.9644 50.7586 58.6512 50.7154 58.44 50.6864C58.2288 50.6575 57.9372 50.616 57.792 50.5943C57.5515 50.5582 57.3561 50.5308 56.4 50.3988C56.2284 50.3752 55.9368 50.334 55.752 50.3075C55.3708 50.2526 55.1716 50.2435 55.2107 50.2828ZM41.7467 57.264C41.7283 57.33 41.7154 57.4596 41.7179 57.552C41.7223 57.7135 41.7241 57.7117 41.7657 57.504C41.8141 57.2612 41.7994 57.0748 41.7467 57.264ZM41.6488 57.8104C41.6308 57.8574 41.6184 57.9751 41.6213 58.072L41.6266 58.248L41.6691 58.032C41.7147 57.8004 41.7027 57.67 41.6488 57.8104ZM54.2944 57.816C54.2971 57.8688 54.3159 57.9768 54.336 58.056L54.3726 58.2L54.3777 58.032C54.3803 57.9396 54.3616 57.8316 54.336 57.792C54.2977 57.7327 54.2904 57.737 54.2944 57.816ZM54.393 58.32C54.3943 58.386 54.4119 58.5048 54.432 58.584L54.4686 58.728L54.471 58.56C54.4722 58.4676 54.4547 58.3488 54.432 58.296C54.3946 58.2089 54.391 58.2112 54.393 58.32ZM41.5528 58.3384C41.5348 58.3854 41.5224 58.5031 41.5253 58.6L41.5306 58.776L41.5731 58.56C41.6187 58.3284 41.6067 58.198 41.5528 58.3384ZM54.5082 59.016C54.5259 59.148 54.5483 59.265 54.5581 59.276C54.6012 59.3242 54.5695 58.9127 54.5253 58.848C54.4903 58.7969 54.4854 58.8456 54.5082 59.016ZM41.4527 58.9504C41.4395 59.0129 41.4162 59.1504 41.4011 59.256C41.3859 59.3616 41.3524 59.5614 41.3267 59.7C41.301 59.8386 41.2584 60.0708 41.232 60.216C41.2056 60.3612 41.1624 60.5988 41.136 60.744C41.1096 60.8892 41.0664 61.1268 41.04 61.272C41.0136 61.4172 40.9704 61.6548 40.944 61.8C40.9176 61.9452 40.8744 62.1828 40.848 62.328C40.7977 62.6042 40.7358 62.963 40.6821 63.288C40.6647 63.3936 40.6311 63.5664 40.6075 63.672C40.5306 64.0159 40.4004 64.9444 40.4255 64.9696C40.4542 64.9981 44.0322 63.2116 44.056 63.1568C44.0649 63.1366 44.1117 63.12 44.16 63.12C44.2084 63.12 44.2552 63.1038 44.2641 63.084C44.2764 63.0562 46.1694 62.0867 47.8507 61.2469L48.0136 61.1657L48.6667 61.5001C49.026 61.6841 50.0328 62.1937 50.904 62.6328C51.7752 63.0719 52.4988 63.4422 52.512 63.4556C52.561 63.5054 55.5544 64.9896 55.5714 64.9726C55.6144 64.9297 55.5951 64.778 55.44 63.936C55.3641 63.5234 55.2869 63.0946 55.2436 62.844C55.2196 62.7054 55.1784 62.4732 55.152 62.328C55.1256 62.1828 55.0824 61.9452 55.056 61.8C55.0296 61.6548 54.9864 61.4172 54.96 61.272C54.9336 61.1268 54.8947 60.8899 54.8736 60.7457C54.8526 60.6013 54.8202 60.4681 54.8016 60.4496C54.7489 60.397 54.7599 60.4834 54.912 61.32C54.9384 61.4652 54.9816 61.7028 55.008 61.848C55.0344 61.9932 55.0776 62.2308 55.104 62.376C55.1304 62.5212 55.1747 62.7642 55.2024 62.916C55.2301 63.0678 55.2751 63.3216 55.3025 63.48C55.3299 63.6384 55.3719 63.876 55.396 64.008C55.4781 64.4591 55.5237 64.824 55.5024 64.8608C55.4908 64.8811 54.4623 64.3812 53.2167 63.75C51.9711 63.1187 50.2889 62.2662 49.4784 61.8556L48.0047 61.1089L47.1264 61.5545C46.6433 61.7996 45.0384 62.6119 43.56 63.3598C42.0816 64.1075 40.7973 64.7587 40.7058 64.8071C40.4515 64.9414 40.4465 64.9012 40.6078 64.032C40.6297 63.9132 40.672 63.6756 40.7016 63.504C40.7893 62.995 40.8537 62.6297 40.896 62.4C40.9179 62.2812 40.9582 62.0544 40.9855 61.896C41.0129 61.7376 41.0579 61.4838 41.0856 61.332C41.1133 61.1802 41.1576 60.9372 41.184 60.792C41.2104 60.6468 41.2536 60.4092 41.28 60.264C41.4017 59.5945 41.4312 59.4294 41.4761 59.166C41.5221 58.8959 41.5024 58.7149 41.4527 58.9504ZM54.6042 59.544C54.6219 59.676 54.6443 59.793 54.6541 59.804C54.6972 59.8522 54.6655 59.4407 54.6213 59.376C54.5863 59.3249 54.5814 59.3736 54.6042 59.544ZM54.7002 60.072C54.7179 60.204 54.7403 60.321 54.7501 60.332C54.7932 60.3802 54.7615 59.9687 54.7173 59.904C54.6823 59.8529 54.6774 59.9016 54.7002 60.072Z" fill="#6B8CF0"/>
</g>
<defs>
<clipPath id="clip0_2863_8670">
<rect width="48" height="48" fill="white" transform="translate(24 24)"/>
</clipPath>
</defs>
</svg>
