<svg width="72" height="72" viewBox="0 0 72 72" fill="none" xmlns="http://www.w3.org/2000/svg">
<rect width="72" height="72" rx="36" fill="url(#paint0_linear_3245_19840)"/>
<g clip-path="url(#clip0_3245_19840)">
<path d="M16.6396 54.9048C17.2875 55.5527 18.271 55.7273 19.1022 55.3417L41.6607 45.6295C42.7649 45.1175 43.0229 43.6631 42.1624 42.8025L28.7907 29.4308C27.93 28.5702 26.4757 28.8282 25.9637 29.9324L16.2027 52.4422C15.8172 53.2734 15.9917 54.2569 16.6396 54.9048Z" fill="#FFE266"/>
<path d="M35.4314 43.5018L18.8488 50.6412C18.2627 50.913 17.5743 50.8052 17.0987 50.3758L16.2027 52.4421C15.8172 53.2734 15.9917 54.2569 16.6396 54.9048C17.2875 55.5527 18.271 55.7271 19.1022 55.3417L41.4444 45.7226C40.9297 45.5163 35.5151 43.463 35.4314 43.5018Z" fill="#EFAA66"/>
<path d="M42.3186 44.7172C43.86 43.1758 41.6189 38.4355 37.3129 34.1295C33.0069 29.8234 28.2666 27.5823 26.7251 29.1238C25.1837 30.6652 27.4248 35.4055 31.7308 39.7115C36.0368 44.0176 40.7771 46.2587 42.3186 44.7172Z" fill="#FFE266"/>
<path d="M38.4121 42.731C39.4233 41.7198 37.7854 38.4425 34.7539 35.411C31.7223 32.3794 28.4451 30.7416 27.4339 31.7527C26.4227 32.7639 28.0606 36.0412 31.0921 39.0727C34.1237 42.1043 37.401 43.7421 38.4121 42.731Z" fill="#EFAA66"/>
<path d="M40.9314 46.0074C38.4742 46.0074 34.6687 43.7801 31.1679 40.2793C27.9889 37.1003 25.8106 33.5992 25.4832 31.1425C25.4247 30.7035 25.733 30.3002 26.1721 30.2418C26.6107 30.1835 27.0143 30.4916 27.0728 30.9306C27.3517 33.0233 29.4043 36.2477 32.3019 39.1453C36.0043 42.8476 39.4183 44.4619 41.0228 44.4019C41.4647 44.3858 41.8382 44.7289 41.8558 45.1714C41.8734 45.6138 41.5289 45.9869 41.0863 46.0044C41.0354 46.0063 40.9835 46.0074 40.9314 46.0074Z" fill="#D0844B"/>
<path d="M32.3582 33.6286C32.17 33.4404 32.0247 33.204 31.9441 32.9307L31.2026 30.4209C30.9225 29.4732 31.1753 28.4577 31.8621 27.7709L33.21 26.423C33.8968 25.7362 34.9123 25.4835 35.86 25.7636L38.5599 26.5256L37.6493 23.2769C37.3913 22.4036 37.8901 21.4866 38.7634 21.2285C39.6367 20.9705 40.5537 21.4693 40.8118 22.3426L41.5533 24.8524C41.8333 25.8002 41.5806 26.8157 40.8939 27.5024L39.546 28.8503C38.8592 29.5371 37.8437 29.7897 36.896 29.5097L34.1686 28.6203L35.1066 31.9964C35.3647 32.8697 34.8658 33.7868 33.9926 34.0448C33.3924 34.2221 32.7715 34.042 32.3582 33.6286Z" fill="#CAB4EF"/>
<path d="M38.5599 26.5256L35.8601 25.7636C35.0454 25.5229 34.181 25.676 33.5181 26.1598C33.7037 26.902 33.9398 27.8894 34.1685 28.6202L36.8959 29.5096C37.7492 29.7617 38.6572 29.5819 39.331 29.0424C39.0923 28.2954 38.787 27.2761 38.5599 26.5256Z" fill="#A183E2"/>
<path d="M42.8001 32.4551C42.9883 32.6433 43.2248 32.7885 43.498 32.8692L46.0078 33.6106C46.9555 33.8906 47.971 33.638 48.6578 32.9512L50.0057 31.6033C50.6926 30.9164 50.9452 29.901 50.6651 28.9532L49.9032 26.2534L53.1518 27.1639C54.0251 27.4219 54.9423 26.9231 55.2003 26.0498C55.4583 25.1765 54.9595 24.2594 54.0862 24.0014L51.5764 23.2599C50.6286 22.9799 49.6131 23.2327 48.9264 23.9194L47.5785 25.2673C46.8918 25.9541 46.6391 26.9695 46.9191 27.9173L47.8084 30.6447L44.4323 29.7066C43.559 29.4486 42.642 29.9474 42.3839 30.8207C42.2066 31.4209 42.3867 32.0417 42.8001 32.4551Z" fill="#F7C4DB"/>
<path d="M50.6654 28.9532L49.9034 26.2533C49.1179 26.0841 48.0191 25.8675 47.2351 25.6917C46.8154 26.3375 46.6925 27.1496 46.9194 27.9173L47.8087 30.6447C48.6218 30.8455 49.4823 30.984 50.263 31.3037C50.7517 30.6396 50.9072 29.7713 50.6654 28.9532Z" fill="#EF8BBD"/>
<path d="M46.6389 18.8965C46.1161 19.4193 45.2684 19.4193 44.7456 18.8965C44.2228 18.3737 44.2228 17.526 44.7456 17.0032C45.2684 16.4804 46.1161 16.4804 46.6389 17.0032C47.1617 17.5261 47.1617 18.3737 46.6389 18.8965Z" fill="#FFA585"/>
<path d="M48.6591 41.138C49.3985 41.138 49.9978 40.5386 49.9978 39.7992C49.9978 39.0598 49.3985 38.4604 48.6591 38.4604C47.9197 38.4604 47.3203 39.0598 47.3203 39.7992C47.3203 40.5386 47.9197 41.138 48.6591 41.138Z" fill="#78EAC4"/>
<path d="M41.3352 40.989C40.8124 41.5118 39.9647 41.5118 39.4419 40.989C38.9191 40.4662 38.9191 39.6185 39.4419 39.0957C39.9647 38.5729 40.8124 38.5729 41.3352 39.0957C41.858 39.6186 41.858 40.4662 41.3352 40.989Z" fill="#78EAC4"/>
<path d="M41.3352 40.989C40.8124 41.5118 39.9647 41.5118 39.4419 40.989C38.9191 40.4662 38.9191 39.6185 39.4419 39.0957C39.9647 38.5729 40.8124 38.5729 41.3352 39.0957C41.858 39.6186 41.858 40.4662 41.3352 40.989Z" fill="#8BB6EF"/>
<path d="M23.2889 44.9139C23.1832 44.9139 23.0756 44.8928 22.9723 44.8483C22.5655 44.6732 22.3777 44.2015 22.5529 43.7947L23.5684 41.4362C23.7435 41.0295 24.2153 40.8414 24.6219 41.0168C25.0287 41.1919 25.2165 41.6636 25.0413 42.0704L24.0258 44.4289C23.8952 44.7323 23.5996 44.9139 23.2889 44.9139Z" fill="white"/>
<path d="M25.4413 39.9162C25.3355 39.9162 25.228 39.8951 25.1245 39.8506C24.7178 39.6754 24.5301 39.2038 24.7053 38.7969L25.0148 38.078C25.1899 37.6714 25.6614 37.4833 26.0684 37.6587C26.4751 37.8338 26.6629 38.3055 26.4878 38.7123L26.1782 39.4313C26.0475 39.7345 25.7518 39.9162 25.4413 39.9162Z" fill="white"/>
<path d="M31.7336 16.6519L32.3922 18.504C32.4204 18.5833 32.4763 18.6462 32.5467 18.6779L34.1922 19.4193C34.4247 19.524 34.4247 19.8944 34.1922 19.9992L32.5467 20.7406C32.4763 20.7724 32.4204 20.8352 32.3922 20.9144L31.7336 22.7665C31.6406 23.0282 31.3114 23.0282 31.2184 22.7665L30.5598 20.9144C30.5315 20.8351 30.4757 20.7723 30.4053 20.7406L28.7598 19.9992C28.5273 19.8945 28.5273 19.5241 28.7598 19.4193L30.4053 18.6779C30.4757 18.6462 30.5315 18.5833 30.5598 18.504L31.2184 16.6519C31.3114 16.3902 31.6406 16.3902 31.7336 16.6519Z" fill="#F7C4DB"/>
<path d="M54.0472 33.3019L54.5357 34.6757C54.5566 34.7346 54.598 34.7812 54.6503 34.8047L55.8709 35.3546C56.0434 35.4323 56.0434 35.707 55.8709 35.7847L54.6503 36.3346C54.598 36.3582 54.5566 36.4048 54.5357 36.4637L54.0472 37.8375C53.9781 38.0316 53.734 38.0316 53.665 37.8375L53.1764 36.4637C53.1555 36.4048 53.1141 36.3582 53.0618 36.3346L51.8413 35.7847C51.6688 35.707 51.6688 35.4323 51.8413 35.3546L53.0618 34.8047C53.1141 34.7812 53.1555 34.7346 53.1764 34.6757L53.665 33.3019C53.734 33.1079 53.9781 33.1079 54.0472 33.3019Z" fill="#CAB4EF"/>
<path d="M44.9627 22.9563C45.3053 22.9563 45.5831 22.6785 45.5831 22.3359C45.5831 21.9933 45.3053 21.7155 44.9627 21.7155C44.62 21.7155 44.3423 21.9933 44.3423 22.3359C44.3423 22.6785 44.62 22.9563 44.9627 22.9563Z" fill="#78EAC4"/>
<path d="M54.3556 18.4963C54.4328 17.8683 53.9862 17.2966 53.3581 17.2194C52.73 17.1423 52.1583 17.5888 52.0811 18.2169C52.004 18.8449 52.4506 19.4166 53.0787 19.4938C53.7067 19.571 54.2785 19.1244 54.3556 18.4963Z" fill="#8BB6EF"/>
</g>
<defs>
<linearGradient id="paint0_linear_3245_19840" x1="36" y1="0" x2="36" y2="72" gradientUnits="userSpaceOnUse">
<stop stop-color="#3F69EB" stop-opacity="0.1"/>
<stop offset="1" stop-color="#3F69EB" stop-opacity="0"/>
</linearGradient>
<clipPath id="clip0_3245_19840">
<rect width="40" height="40" fill="white" transform="translate(16 16)"/>
</clipPath>
</defs>
</svg>
