<svg width="100" height="72" viewBox="0 0 100 72" fill="none" xmlns="http://www.w3.org/2000/svg">
<path d="M94.7099 0.288337L5.29071 0.296489C2.05876 0.306941 0.199543 3.18308 0.209513 6.38275L0.20414 65.8266C0.21411 69.0263 2.05231 71.7131 5.28425 71.7027L94.7035 71.6945C97.9354 71.6841 99.7946 69.0172 99.7846 65.8175L99.79 6.37367C99.78 3.174 97.9419 0.277885 94.7099 0.288337Z" fill="#D6EFFF"/>
<path d="M49.8551 53.0932C61.0015 53.0932 70.0374 44.1475 70.0374 33.1125C70.0374 22.0774 61.0015 13.1317 49.8551 13.1317C38.7087 13.1317 29.6728 22.0774 29.6728 33.1125C29.6728 44.1475 38.7087 53.0932 49.8551 53.0932Z" fill="url(#paint0_linear_2473_3315)"/>
<path d="M92.8397 68.3449L23.5645 68.5876L69.7114 28.5311C72.4205 26.1795 76.3638 25.9188 79.3589 27.8934L96.077 38.9152L96.1608 64.952C96.1632 65.8345 95.8174 66.6831 95.197 67.3169C94.5766 67.9507 93.7308 68.3196 92.8397 68.3449Z" fill="url(#paint1_linear_2473_3315)"/>
<path d="M77.1615 68.3973L7.19465 68.637C6.74726 68.6394 6.30382 68.5544 5.8896 68.387C5.47538 68.2196 5.09851 67.9731 4.78054 67.6615C4.46258 67.3499 4.20974 66.9793 4.03647 66.571C3.8632 66.1626 3.77291 65.7245 3.77071 65.2815L3.69395 39.7251L21.0778 28.0892C24.059 26.0937 28.004 26.3268 30.7295 28.6594L77.1615 68.3973Z" fill="url(#paint2_linear_2473_3315)"/>
<defs>
<linearGradient id="paint0_linear_2473_3315" x1="49.8551" y1="13.1317" x2="49.8551" y2="53.0932" gradientUnits="userSpaceOnUse">
<stop stop-color="#FFD15C"/>
<stop offset="1" stop-color="#FFD15C" stop-opacity="0.5"/>
</linearGradient>
<linearGradient id="paint1_linear_2473_3315" x1="49.9274" y1="24.5538" x2="49.9274" y2="68.6371" gradientUnits="userSpaceOnUse">
<stop stop-color="#99D7FF"/>
<stop offset="1" stop-color="#CCEBFF"/>
</linearGradient>
<linearGradient id="paint2_linear_2473_3315" x1="49.9274" y1="24.5538" x2="49.9274" y2="68.6371" gradientUnits="userSpaceOnUse">
<stop stop-color="#3F69EB"/>
<stop offset="1" stop-color="#6B8CF0"/>
</linearGradient>
</defs>
</svg>
