<svg width="72" height="72" viewBox="0 0 72 72" fill="none" xmlns="http://www.w3.org/2000/svg">
<rect width="72" height="72" rx="36" fill="url(#paint0_linear_3245_19827)"/>
<path d="M22.2257 41.64L27.7369 36.1287C27.8645 36.0012 28.0271 35.9144 28.204 35.8792C28.381 35.844 28.5644 35.8621 28.731 35.9311C28.8977 36.0002 29.0402 36.117 29.1405 36.267C29.2407 36.417 29.2943 36.5933 29.2944 36.7737V39.2534H46C46 40.8613 45.3613 42.4033 44.2243 43.5402C43.0874 44.6772 41.5454 45.3159 39.9375 45.3159H29.2944V47.7956C29.2943 47.976 29.2407 48.1523 29.1405 48.3023C29.0402 48.4523 28.8977 48.5692 28.731 48.6382C28.5644 48.7072 28.381 48.7253 28.204 48.6901C28.0271 48.6549 27.8645 48.5681 27.7369 48.4406L22.2257 42.93C22.0546 42.7589 21.9585 42.5269 21.9585 42.285C21.9585 42.043 22.0546 41.811 22.2257 41.64Z" fill="url(#paint1_linear_3245_19827)"/>
<path d="M49.8163 30.2959L44.3053 35.8072C44.1777 35.9347 44.0152 36.0215 43.8382 36.0567C43.6613 36.0919 43.4779 36.0738 43.3112 36.0048C43.1445 35.9357 43.002 35.8189 42.9018 35.6689C42.8015 35.5189 42.7479 35.3426 42.7478 35.1622V32.6825H26.0435C26.0435 31.0746 26.6822 29.5326 27.8191 28.3957C28.9561 27.2587 30.4981 26.62 32.106 26.62H42.7478V24.1397C42.7479 23.9593 42.8015 23.783 42.9018 23.633C43.002 23.483 43.1445 23.3661 43.3112 23.2971C43.4779 23.2281 43.6613 23.21 43.8382 23.2452C44.0152 23.2803 44.1777 23.3672 44.3053 23.4947L49.8163 29.0059C49.9873 29.177 50.0834 29.409 50.0834 29.6509C50.0834 29.8929 49.9873 30.1249 49.8163 30.2959Z" fill="url(#paint2_linear_3245_19827)"/>
<defs>
<linearGradient id="paint0_linear_3245_19827" x1="36" y1="0" x2="36" y2="72" gradientUnits="userSpaceOnUse">
<stop stop-color="#3F69EB" stop-opacity="0.1"/>
<stop offset="1" stop-color="#3F69EB" stop-opacity="0"/>
</linearGradient>
<linearGradient id="paint1_linear_3245_19827" x1="33.9793" y1="35.8617" x2="33.9793" y2="48.7076" gradientUnits="userSpaceOnUse">
<stop stop-color="#FEE380"/>
<stop offset="1" stop-color="#FECD1A"/>
</linearGradient>
<linearGradient id="paint2_linear_3245_19827" x1="38.0634" y1="23.2277" x2="38.0634" y2="36.0742" gradientUnits="userSpaceOnUse">
<stop stop-color="#C3D0F9"/>
<stop offset="1" stop-color="#3F69EB"/>
</linearGradient>
</defs>
</svg>
