<svg width="16" height="16" viewBox="0 0 16 16" fill="none" xmlns="http://www.w3.org/2000/svg">
<path d="M7.99999 1.33301C6.59469 1.33294 5.24616 1.88751 4.24749 2.8762C3.24881 3.86489 2.68071 5.20778 2.66666 6.61301C2.66666 10.2663 7.36666 14.333 7.56666 14.5063C7.68741 14.6096 7.84109 14.6664 7.99999 14.6664C8.15889 14.6664 8.31257 14.6096 8.43332 14.5063C8.66666 14.333 13.3333 10.2663 13.3333 6.61301C13.3193 5.20778 12.7512 3.86489 11.7525 2.8762C10.7538 1.88751 9.40529 1.33294 7.99999 1.33301ZM7.99999 13.0997C6.88666 12.0397 3.99999 9.09967 3.99999 6.61301C3.99999 5.55214 4.42142 4.53473 5.17156 3.78458C5.92171 3.03444 6.93912 2.61301 7.99999 2.61301C9.06086 2.61301 10.0783 3.03444 10.8284 3.78458C11.5786 4.53473 12 5.55214 12 6.61301C12 9.07967 9.11332 12.0397 7.99999 13.0997Z" fill="#505050"/>
<path d="M7.99999 4C7.5385 4 7.08737 4.13685 6.70366 4.39324C6.31995 4.64963 6.02088 5.01404 5.84427 5.44041C5.66767 5.86677 5.62146 6.33592 5.71149 6.78854C5.80152 7.24117 6.02375 7.65693 6.35008 7.98325C6.6764 8.30957 7.09216 8.5318 7.54478 8.62183C7.9974 8.71186 8.46656 8.66566 8.89292 8.48905C9.31928 8.31245 9.6837 8.01338 9.94009 7.62966C10.1965 7.24595 10.3333 6.79482 10.3333 6.33333C10.3333 5.71449 10.0875 5.121 9.64991 4.68342C9.21232 4.24583 8.61883 4 7.99999 4V4ZM7.99999 7.33333C7.80221 7.33333 7.60887 7.27468 7.44442 7.1648C7.27997 7.05492 7.1518 6.89874 7.07611 6.71602C7.00042 6.53329 6.98062 6.33222 7.01921 6.13824C7.05779 5.94426 7.15303 5.76608 7.29288 5.62623C7.43274 5.48637 7.61092 5.39113 7.8049 5.35255C7.99888 5.31396 8.19995 5.33377 8.38267 5.40945C8.5654 5.48514 8.72158 5.61331 8.83146 5.77776C8.94134 5.94221 8.99999 6.13555 8.99999 6.33333C8.99999 6.59855 8.89463 6.8529 8.7071 7.04044C8.51956 7.22798 8.26521 7.33333 7.99999 7.33333Z" fill="#505050"/>
</svg>
