<svg width="16" height="16" viewBox="0 0 16 16" fill="none" xmlns="http://www.w3.org/2000/svg">
<path d="M4.66666 4.00002C4.84347 4.00002 5.01304 3.92978 5.13806 3.80476C5.26309 3.67973 5.33332 3.51016 5.33332 3.33335C5.33332 3.15654 5.26309 2.98697 5.13806 2.86195C5.01304 2.73693 4.84347 2.66669 4.66666 2.66669H3.33332C3.15651 2.66669 2.98694 2.73693 2.86192 2.86195C2.73689 2.98697 2.66666 3.15654 2.66666 3.33335V12.6667C2.66666 12.8435 2.73689 13.0131 2.86192 13.1381C2.98694 13.2631 3.15651 13.3334 3.33332 13.3334H4.66666C4.84347 13.3334 5.01304 13.2631 5.13806 13.1381C5.26309 13.0131 5.33332 12.8435 5.33332 12.6667C5.33332 12.4899 5.26309 12.3203 5.13806 12.1953C5.01304 12.0703 4.84347 12 4.66666 12H3.99999V4.00002H4.66666Z" fill="white"/>
<path d="M13.88 7.61332L12 4.94665C11.898 4.80293 11.7433 4.70542 11.5697 4.67543C11.396 4.64545 11.2176 4.68544 11.0733 4.78665C11.0012 4.83718 10.9399 4.90148 10.8927 4.97586C10.8456 5.05023 10.8137 5.1332 10.7988 5.21998C10.784 5.30675 10.7864 5.39562 10.8061 5.48144C10.8257 5.56726 10.8622 5.64833 10.9133 5.71999L12.06 7.33332H6.66667C6.48986 7.33332 6.32029 7.40356 6.19526 7.52858C6.07024 7.65361 6 7.82318 6 7.99999C6 8.1768 6.07024 8.34637 6.19526 8.47139C6.32029 8.59642 6.48986 8.66665 6.66667 8.66665H12L10.8 10.2667C10.7475 10.3367 10.7093 10.4164 10.6875 10.5012C10.6658 10.586 10.661 10.6743 10.6734 10.7609C10.6857 10.8476 10.7151 10.931 10.7597 11.0063C10.8043 11.0816 10.8633 11.1475 10.9333 11.2C11.0487 11.2865 11.1891 11.3333 11.3333 11.3333C11.4368 11.3333 11.5389 11.3092 11.6315 11.2629C11.724 11.2167 11.8046 11.1495 11.8667 11.0667L13.8667 8.39999C13.952 8.28723 13.9994 8.15024 14.0018 8.00883C14.0042 7.86742 13.9615 7.7289 13.88 7.61332Z" fill="white"/>
</svg>
