<svg width="96" height="96" viewBox="0 0 96 96" fill="none" xmlns="http://www.w3.org/2000/svg">
<rect width="96" height="96" rx="48" fill="#FAFAFA"/>
<g clip-path="url(#clip0_2863_8717)">
<path fill-rule="evenodd" clip-rule="evenodd" d="M29.6722 30.192C29.5108 30.3636 29.3296 30.5688 29.2698 30.648C29.2098 30.7272 29.1386 30.817 29.1118 30.8474C28.9052 31.0813 28.43 31.5934 28.1505 31.8832C27.9655 32.075 27.7609 32.3076 27.6959 32.4C27.6309 32.4924 27.4731 32.6706 27.3452 32.796C27.2175 32.9214 27.1222 33.024 27.1337 33.024C27.163 33.024 26.8776 33.3396 26.4114 33.8226C26.1936 34.0482 26.0155 34.2535 26.0155 34.2787C26.0155 34.3039 25.8697 34.4698 25.6916 34.6471C25.5134 34.8244 25.2818 35.0772 25.1767 35.2087C25.0716 35.3404 24.9042 35.5273 24.8048 35.6243C24.7053 35.7211 24.6238 35.8273 24.6238 35.8602C24.6238 35.8931 24.6096 35.9057 24.592 35.8883C24.5747 35.8708 24.5059 35.9366 24.4393 36.0347C24.3727 36.1326 24.2453 36.2858 24.1561 36.3751L23.9939 36.5374L24.0089 38.7007C24.0206 40.3778 24.0374 40.8685 24.084 40.884C24.117 40.895 24.144 40.967 24.144 41.044C24.144 41.121 24.1656 41.184 24.192 41.184C24.2183 41.184 24.2399 41.2488 24.2399 41.328C24.2399 41.4072 24.2615 41.472 24.2879 41.472C24.3143 41.472 24.3359 41.5152 24.3359 41.568C24.3359 41.6208 24.3575 41.664 24.3839 41.664C24.4103 41.664 24.4319 41.7072 24.4319 41.76C24.4319 41.8128 24.4535 41.856 24.4799 41.856C24.5063 41.856 24.5279 41.8992 24.5279 41.952C24.5279 42.0048 24.5495 42.048 24.5759 42.048C24.6022 42.048 24.6238 42.0804 24.6238 42.12C24.6238 42.1596 24.6454 42.192 24.6718 42.192C24.6982 42.192 24.7198 42.2196 24.7198 42.2534C24.7198 42.2872 24.763 42.346 24.8158 42.384C24.8686 42.422 24.9118 42.486 24.9118 42.5261C24.9118 42.6104 25.7552 43.44 25.8409 43.44C25.8725 43.44 25.9295 43.4832 25.9675 43.536C26.0055 43.5888 26.0652 43.632 26.1001 43.632C26.135 43.632 26.2077 43.6732 26.2617 43.7236C26.3156 43.7738 26.4498 43.8254 26.5595 43.8382C26.6694 43.8508 26.9213 43.9201 27.1192 43.9921C29.4151 44.827 31.9946 43.8475 33.0569 41.7379C33.5178 40.8222 33.5536 40.6009 33.5839 38.482L33.6098 36.6679L33.8242 36.25C33.9421 36.02 34.1139 35.6945 34.2059 35.5265C34.2979 35.3584 34.4928 34.9912 34.639 34.7105C34.983 34.0501 35.3719 33.3143 35.949 32.232C36.861 30.5214 37.158 29.9454 37.1381 29.9255C37.1273 29.9147 35.5091 29.9 33.542 29.893L29.9657 29.88L29.6722 30.192ZM44.353 30.1289C44.3467 30.2526 44.3299 30.3726 44.3156 30.3956C44.3015 30.4186 44.2719 30.5496 44.2502 30.6868C44.1933 31.045 43.9909 32.2181 43.8677 32.904C43.6891 33.8975 43.6089 34.3508 43.4854 35.064C43.4077 35.5128 43.3105 36.0719 43.2696 36.3062C43.169 36.8825 43.1636 39.6677 43.2618 40.272C43.9165 44.2945 48.9816 45.7118 51.6671 42.624C52.2253 41.9821 52.5719 41.2027 52.7437 40.2032C52.8248 39.7316 52.8047 36.8202 52.7171 36.336C52.565 35.4955 52.5468 35.3938 52.5045 35.136C52.4806 34.9908 52.4385 34.7532 52.4109 34.608C52.3833 34.4628 52.3391 34.2198 52.3128 34.068C52.2864 33.9162 52.2414 33.657 52.2127 33.492C52.1841 33.327 52.1427 33.0948 52.1208 32.976C52.099 32.8572 52.0576 32.625 52.0289 32.46C52.0003 32.295 51.9535 32.025 51.9248 31.86C51.8961 31.695 51.8547 31.4628 51.8329 31.344C51.8111 31.2252 51.7708 30.9984 51.7434 30.84C51.7161 30.6816 51.6712 30.4224 51.6436 30.264C51.6161 30.1056 51.5934 29.9598 51.5932 29.94C51.5931 29.9202 49.9667 29.904 47.9789 29.904H44.3647L44.353 30.1289ZM58.9917 30.276C59.0997 30.4806 59.3827 31.0152 59.6206 31.464C59.8585 31.9128 60.1548 32.4744 60.2791 32.712C60.4034 32.9496 60.5915 33.306 60.6973 33.504C60.8031 33.702 61.0957 34.2545 61.3478 34.7317C61.5997 35.209 61.9077 35.7922 62.0321 36.0277C62.1565 36.2633 62.2826 36.4862 62.3122 36.5233C62.3488 36.5689 62.3755 37.1716 62.3948 38.3953C62.4293 40.5797 62.4805 40.8792 62.9819 41.8256C64.0891 43.9154 66.8936 44.8909 69.0545 43.9378C69.1963 43.8752 69.3812 43.824 69.4653 43.824C69.5519 43.824 69.663 43.7824 69.7213 43.728C69.7779 43.6752 69.8528 43.632 69.8877 43.632C69.9226 43.632 69.9822 43.5888 70.0203 43.536C70.0583 43.4832 70.1135 43.44 70.1429 43.44C70.2239 43.44 70.98 42.7157 70.98 42.638C70.98 42.6008 71.0016 42.5837 71.028 42.6C71.0544 42.6163 71.076 42.5899 71.076 42.5414C71.076 42.4928 71.1192 42.422 71.172 42.384C71.2248 42.346 71.2679 42.2872 71.2679 42.2534C71.2679 42.2196 71.2895 42.192 71.3159 42.192C71.3423 42.192 71.3639 42.1596 71.3639 42.12C71.3639 42.0804 71.3855 42.048 71.4119 42.048C71.4383 42.048 71.4599 42.0048 71.4599 41.952C71.4599 41.8992 71.4815 41.856 71.5079 41.856C71.5343 41.856 71.5559 41.8128 71.5559 41.76C71.5559 41.7072 71.5775 41.664 71.6039 41.664C71.6303 41.664 71.6519 41.6208 71.6519 41.568C71.6519 41.5152 71.6734 41.472 71.6998 41.472C71.7262 41.472 71.7478 41.4072 71.7478 41.328C71.7478 41.2488 71.7694 41.184 71.7958 41.184C71.8222 41.184 71.8438 41.121 71.8438 41.044C71.8438 40.967 71.8708 40.895 71.9038 40.884C71.9503 40.8685 71.9671 40.3778 71.9789 38.7007L71.9939 36.5374L71.8229 36.3662C71.7289 36.2722 71.6519 36.1729 71.6519 36.1456C71.6519 36.1183 71.6303 36.096 71.6039 36.096C71.5775 36.096 71.5559 36.0732 71.5559 36.0454C71.5559 36.0175 71.4315 35.8717 71.2793 35.7214C71.1273 35.571 70.9168 35.3404 70.8115 35.2087C70.7063 35.0772 70.4743 34.8244 70.2962 34.6471C70.118 34.4698 69.9723 34.3039 69.9723 34.2787C69.9723 34.2535 69.7941 34.0504 69.5764 33.8274C69.3586 33.6044 69.1157 33.3389 69.0365 33.2371C68.9573 33.1355 68.7846 32.9429 68.6526 32.8092C68.5206 32.6754 68.3499 32.4826 68.2733 32.3804C68.1966 32.2784 67.9969 32.0579 67.8294 31.8904C67.6619 31.7228 67.5249 31.5715 67.5249 31.5541C67.5249 31.5366 67.4601 31.4605 67.3809 31.3848C67.3018 31.3091 67.237 31.2383 67.237 31.2274C67.237 31.2164 67.1448 31.1141 67.0322 30.9998C66.9195 30.8855 66.7524 30.6948 66.6606 30.576C66.569 30.4572 66.3898 30.2574 66.2625 30.132L66.0309 29.904H62.4131H58.7954L58.9917 30.276Z" fill="#3F69EB"/>
<path fill-rule="evenodd" clip-rule="evenodd" d="M66.661 57.7344L66.685 65.976L66.6972 57.7705C66.7039 53.2575 66.6931 49.5488 66.6732 49.5289C66.6534 49.509 66.6479 53.2015 66.661 57.7344ZM30.5978 59.136C30.5978 64.4292 30.6034 66.5946 30.6103 63.948C30.6171 61.3014 30.6171 56.9706 30.6103 54.324C30.6034 51.6774 30.5978 53.8428 30.5978 59.136ZM44.9941 59.112C44.9941 64.392 44.9998 66.5449 45.0066 63.8961C45.0134 61.2475 45.0134 56.9275 45.0066 54.2961C44.9998 51.6649 44.9941 53.832 44.9941 59.112ZM50.8063 51.5797C50.7436 51.743 50.7739 63.8652 50.8371 63.9511C50.8931 64.0273 51.3518 64.0319 57.7833 64.0203L64.6696 64.008V57.768V51.528L57.7525 51.5159C51.4761 51.5048 50.8328 51.5107 50.8063 51.5797ZM34.2334 68.82C36.2063 68.827 39.4346 68.827 41.4075 68.82C43.3804 68.813 41.7662 68.8074 37.8204 68.8074C33.8746 68.8074 32.2605 68.813 34.2334 68.82Z" fill="#D6EFFF"/>
<path fill-rule="evenodd" clip-rule="evenodd" d="M36.9807 30.2738C36.7599 30.6986 36.7317 30.7649 36.801 30.696C36.8276 30.6696 36.922 30.5076 37.0109 30.336C37.0999 30.1644 37.1942 30.0081 37.2206 29.9887C37.247 29.9693 38.8532 29.9531 40.7899 29.9527L44.3113 29.952L44.2812 30.156C44.2646 30.2682 44.2285 30.4788 44.201 30.624C44.1736 30.7692 44.1323 30.996 44.1094 31.128C44.0865 31.26 44.0441 31.503 44.0153 31.668C43.9865 31.833 43.9412 32.0922 43.9147 32.244C43.8882 32.3958 43.8459 32.628 43.8207 32.76C43.7955 32.892 43.7409 33.216 43.6996 33.48C43.6581 33.744 43.6036 34.068 43.5785 34.2C43.5536 34.332 43.5225 34.548 43.5096 34.68C43.4805 34.9775 43.5753 34.5473 43.7264 33.696C43.7803 33.3924 43.8439 33.036 43.8675 32.904C43.9196 32.6149 44.0928 31.6238 44.1612 31.224C44.1883 31.0656 44.2321 30.8172 44.2585 30.672C44.3491 30.1734 44.3776 29.9509 44.3542 29.9275C44.3414 29.9145 42.7203 29.9041 40.7517 29.9042L37.1726 29.9043L36.9807 30.2738ZM51.6155 30.1076C51.6325 30.2201 51.668 30.4308 51.6944 30.576C51.7209 30.7212 51.7628 30.9534 51.7877 31.092C51.8125 31.2306 51.8535 31.4574 51.8787 31.596C51.9039 31.7346 51.948 31.9884 51.9768 32.16C52.0056 32.3316 52.0498 32.5854 52.075 32.724C52.1002 32.8626 52.1414 33.0894 52.1666 33.228C52.1918 33.3666 52.236 33.6204 52.2648 33.792C52.4186 34.7078 52.5148 35.1123 52.476 34.68C52.4619 34.5216 52.4327 34.3164 52.4113 34.224C52.3898 34.1316 52.3471 33.894 52.3164 33.696C52.2856 33.498 52.2417 33.2388 52.2186 33.12C52.1955 33.0012 52.1522 32.7636 52.1225 32.592C52.0491 32.1685 51.9928 31.8549 51.9289 31.512C51.8993 31.3536 51.8539 31.1052 51.8281 30.96C51.8022 30.8148 51.7603 30.6038 51.735 30.4913C51.7097 30.3787 51.6889 30.2112 51.6889 30.119V29.9514L55.2257 29.9636L58.7624 29.976L58.8608 30.168C58.9148 30.2736 58.97 30.3708 58.9833 30.384C58.9967 30.3972 59.0737 30.5376 59.1546 30.696C59.2803 30.9422 59.8642 32.0677 60.238 32.784C60.3 32.9028 60.362 33.0108 60.3757 33.024C60.3895 33.0372 60.4753 33.1992 60.5666 33.384C60.6579 33.5688 60.7443 33.7308 60.7586 33.744C60.7729 33.7572 60.8592 33.9192 60.9505 34.104C61.0418 34.2888 61.1277 34.4508 61.1415 34.464C61.1552 34.4772 61.2205 34.601 61.2865 34.7393C61.3524 34.8774 61.4244 34.9908 61.4465 34.9913C61.4821 34.9919 61.325 34.6801 60.6846 33.48C60.586 33.2952 60.4035 32.9496 60.2791 32.712C60.1546 32.4744 59.8296 31.8588 59.5567 31.344C59.2839 30.8292 59.0044 30.3 58.9354 30.168L58.8101 29.928L55.1973 29.9156L51.5844 29.9034L51.6155 30.1076ZM36.6173 30.9673C36.517 31.1647 36.398 31.3899 35.9489 32.232C35.5632 32.9555 35.381 33.2989 35.1084 33.816C34.9555 34.1064 34.7574 34.482 34.6684 34.6506C34.5794 34.8192 34.5153 34.9659 34.5261 34.9767C34.55 35.0006 34.7225 34.6989 34.943 34.248C35.0333 34.0632 35.1186 33.9012 35.1324 33.888C35.1463 33.8748 35.2306 33.7236 35.3196 33.552C35.4086 33.3804 35.562 33.0888 35.6607 32.904C35.7593 32.7192 35.9368 32.3844 36.0552 32.16C36.1736 31.9356 36.383 31.5391 36.5206 31.2789C36.6582 31.0188 36.7601 30.7953 36.7471 30.7824C36.734 30.7693 36.6757 30.8526 36.6173 30.9673ZM52.5231 35.208C52.5405 35.34 52.5728 35.5452 52.5948 35.664C52.8006 36.7721 52.7998 36.7602 52.7785 38.5309C52.7671 39.4753 52.7437 40.3128 52.7265 40.392C52.7025 40.5029 52.7058 40.5139 52.7406 40.44C52.7655 40.3872 52.79 40.2792 52.795 40.2C52.803 40.0754 52.8105 40.0851 52.8513 40.272C53.404 42.8039 55.1591 44.2767 57.6154 44.2701C58.2833 44.2683 58.4361 44.2496 58.9591 44.1056C60.6264 43.6464 61.9572 42.1989 62.2851 40.488C62.3799 39.9941 62.3787 39.9981 62.3847 40.1435C62.3923 40.331 62.5828 41.1019 62.6353 41.1576C62.6588 41.1827 62.6781 41.2326 62.6781 41.2686C62.6781 41.36 62.9474 41.9031 63.0646 42.048C63.118 42.114 63.0835 42.0225 62.9879 41.8447C62.4893 40.9175 62.429 40.5671 62.3947 38.3953C62.3752 37.1619 62.3489 36.5693 62.3118 36.5233C62.2818 36.4862 62.1216 36.1968 61.9555 35.88C61.5781 35.1601 61.4788 34.9957 61.4785 35.0904C61.4785 35.1313 61.498 35.1853 61.5218 35.2104C61.5457 35.2355 61.7095 35.5368 61.8857 35.88C62.0621 36.2232 62.2261 36.5245 62.2502 36.5496C62.2744 36.5747 62.2942 36.6126 62.2942 36.6338C62.2942 36.6551 60.1618 36.6669 57.5554 36.6602L52.8166 36.648L52.7876 36.432C52.733 36.0249 52.5437 35.016 52.5175 34.992C52.503 34.9788 52.5055 35.076 52.5231 35.208ZM34.4103 35.1439C34.3779 35.2056 34.2811 35.3856 34.195 35.544C34.109 35.7024 33.9421 36.02 33.8242 36.2499L33.6098 36.6679L33.5839 38.4819C33.5575 40.3292 33.5368 40.544 33.3304 41.112C33.3076 41.1746 33.3118 41.1913 33.3422 41.16C33.4169 41.0832 33.5956 40.4022 33.602 40.1705C33.6047 40.0668 33.6365 40.1556 33.6898 40.416C34.0909 42.3777 35.4514 43.7561 37.4366 44.2116C37.8271 44.3011 39.063 44.2853 39.452 44.1855C39.6236 44.1416 39.8296 44.0888 39.9097 44.0682C41.4057 43.6835 42.7334 42.1723 43.0976 40.44C43.1608 40.139 43.1904 40.059 43.1951 40.176C43.1988 40.2684 43.2211 40.3872 43.2448 40.44C43.2717 40.5005 43.275 40.4384 43.2534 40.272C43.1505 39.4794 43.2162 36.4753 43.3515 35.7882C43.4972 35.0481 43.5032 34.9995 43.4397 35.0664C43.4158 35.0915 43.3845 35.2092 43.37 35.328C43.3555 35.4468 43.32 35.6736 43.2912 35.832C43.2624 35.9904 43.2235 36.2388 43.2049 36.384L43.1711 36.648L38.4323 36.6602C35.826 36.6669 33.6935 36.6608 33.6935 36.6465C33.6935 36.6323 33.7829 36.4539 33.8921 36.2503C34.354 35.3892 34.5116 35.0742 34.491 35.0537C34.479 35.0415 34.4426 35.0822 34.4103 35.1439ZM43.2951 40.68C43.2937 40.7328 43.3135 40.8084 43.3391 40.848C43.4007 40.9434 43.4007 40.8235 43.3391 40.68L43.2978 40.584L43.2951 40.68ZM52.6282 40.7315C52.6104 40.8018 52.6068 40.8701 52.62 40.8833C52.6332 40.8965 52.6584 40.8498 52.6761 40.7795C52.6938 40.709 52.6974 40.6407 52.6842 40.6275C52.671 40.6143 52.6458 40.661 52.6282 40.7315ZM33.1067 41.6271C33.0084 41.8346 32.9466 41.9928 32.9695 41.9785C33.0265 41.9433 33.3192 41.3306 33.3006 41.2859C33.2923 41.2661 33.2051 41.4197 33.1067 41.6271ZM43.4863 41.2692C43.4827 41.3381 43.8068 42 43.8442 42C43.8574 42 43.8073 41.8758 43.7328 41.724C43.6582 41.5722 43.573 41.394 43.5434 41.328C43.5137 41.262 43.4881 41.2355 43.4863 41.2692ZM52.3875 41.4487C52.284 41.6966 52.2976 41.7247 52.4144 41.5034C52.4679 41.4019 52.5005 41.3078 52.487 41.2943C52.4734 41.2807 52.4286 41.3502 52.3875 41.4487ZM52.0026 42.1747C51.5171 42.9062 50.8716 43.4547 50.0012 43.8753C49.6024 44.0682 49.6478 44.0919 50.0573 43.9047C50.91 43.515 51.5911 42.908 52.1275 42.06C52.296 41.7937 52.1924 41.8889 52.0026 42.1747ZM32.8111 42.1665C32.7674 42.2333 32.7484 42.288 32.7692 42.288C32.8158 42.288 32.94 42.0943 32.9116 42.0659C32.9 42.0543 32.8549 42.0997 32.8111 42.1665ZM43.9425 42.168C44.0637 42.3782 44.4588 42.8691 44.6189 43.008C44.8647 43.2213 44.9523 43.2643 44.7523 43.0735C44.5641 42.8937 44.1258 42.3876 43.9473 42.1437C43.8606 42.0253 43.8606 42.0257 43.9425 42.168ZM32.5203 42.552C32.423 42.6708 32.3655 42.768 32.3923 42.768C32.4192 42.768 32.5081 42.6708 32.5898 42.552C32.6715 42.4332 32.7291 42.336 32.7178 42.336C32.7065 42.336 32.6178 42.4332 32.5203 42.552ZM63.3552 42.48C63.4807 42.6671 63.683 42.8834 63.7078 42.857C63.7167 42.8477 63.6157 42.7212 63.4832 42.576C63.3235 42.4008 63.2805 42.3685 63.3552 42.48ZM32.014 43.0892C31.6311 43.4214 31.2994 43.6367 30.7937 43.8812C30.404 44.0697 30.4596 44.0888 30.8622 43.9047C31.3445 43.6843 31.6776 43.4579 32.1268 43.0448C32.4685 42.7307 32.3931 42.7603 32.014 43.0892ZM63.8807 43.0587C64.2174 43.3844 64.654 43.6806 65.1015 43.8867C65.3672 44.0093 65.8476 44.1738 65.871 44.1503C65.8816 44.1396 65.7668 44.0903 65.6159 44.0406C65.0777 43.8636 64.6052 43.587 63.8778 43.0237L63.7098 42.8935L63.8807 43.0587ZM44.9959 43.3327C45.5851 43.754 46.5878 44.2383 46.68 44.1462C46.6929 44.1332 46.5782 44.0843 46.4249 44.0372C46.0742 43.9298 45.6498 43.7207 45.2972 43.4814C45.1469 43.3794 45.0065 43.2963 44.9853 43.2967C44.964 43.2971 44.9688 43.3133 44.9959 43.3327ZM26.7353 43.8983C27.0196 44.0329 27.5243 44.1955 27.7471 44.2242L27.959 44.2515L27.719 44.1876C27.5871 44.1525 27.3172 44.0659 27.1192 43.9952C26.6637 43.8326 26.52 43.7963 26.7353 43.8983ZM69.0365 43.9485C68.9045 44.0126 68.8504 44.0509 68.9163 44.0335C69.0992 43.9854 69.4299 43.8307 69.3484 43.8314C69.3088 43.8317 69.1684 43.8845 69.0365 43.9485ZM30.1664 44.112C30.106 44.138 30.0971 44.1533 30.1424 44.1533C30.182 44.1533 30.2576 44.1347 30.3104 44.112C30.3709 44.0859 30.3797 44.0707 30.3344 44.0707C30.2948 44.0707 30.2192 44.0893 30.1664 44.112ZM49.3615 44.112C49.301 44.138 49.2922 44.1533 49.3375 44.1533C49.3771 44.1533 49.4527 44.1347 49.5055 44.112C49.5659 44.0859 49.5748 44.0707 49.5295 44.0707C49.4899 44.0707 49.4143 44.0893 49.3615 44.112ZM68.3407 44.1617C68.1691 44.2083 68.0827 44.2473 68.1487 44.2483C68.2147 44.2493 68.3874 44.2105 68.5326 44.162C68.867 44.0503 68.7505 44.0502 68.3407 44.1617ZM29.7585 44.208L29.6386 44.2464L29.7585 44.2478C29.8245 44.2485 29.9217 44.2307 29.9745 44.208L30.0704 44.1667L29.9745 44.1681C29.9217 44.1689 29.8245 44.1869 29.7585 44.208ZM46.8422 44.208C46.9081 44.2291 47.0053 44.2464 47.0581 44.2464C47.134 44.2464 47.1291 44.2385 47.0341 44.208C46.9681 44.1869 46.8709 44.1696 46.8182 44.1696C46.7422 44.1696 46.7471 44.1775 46.8422 44.208ZM48.9536 44.208L48.8336 44.2464L48.9536 44.2478C49.0196 44.2485 49.1168 44.2307 49.1696 44.208L49.2655 44.1667L49.1696 44.1681C49.1168 44.1689 49.0196 44.1869 48.9536 44.208ZM66.0372 44.208C66.1032 44.2291 66.2004 44.2464 66.2532 44.2464C66.3291 44.2464 66.3242 44.2385 66.2292 44.208C66.1632 44.1869 66.066 44.1696 66.0133 44.1696C65.9373 44.1696 65.9422 44.1775 66.0372 44.208ZM28.1989 44.3088C28.2781 44.3263 28.548 44.3406 28.7988 44.3406C29.0495 44.3406 29.3194 44.3263 29.3986 44.3088C29.4778 44.2913 29.2079 44.277 28.7988 44.277C28.3897 44.277 28.1197 44.2913 28.1989 44.3088ZM47.394 44.3079C47.5785 44.3498 48.4055 44.3504 48.5937 44.3088C48.6729 44.2914 48.403 44.2766 47.9939 44.2761C47.5848 44.2758 47.3148 44.2901 47.394 44.3079ZM66.5891 44.3088C66.6683 44.3263 66.9382 44.3406 67.1889 44.3406C67.4397 44.3406 67.7096 44.3263 67.7888 44.3088C67.868 44.2913 67.598 44.277 67.1889 44.277C66.7799 44.277 66.5099 44.2913 66.5891 44.3088ZM30.5263 59.16V68.832L28.6188 68.8317C27.0205 68.8314 26.689 68.8197 26.5738 68.7597C26.4625 68.7015 26.2055 68.688 25.2182 68.688H24V70.344V72H47.9939H71.9877V70.344V68.688L70.752 68.6895C69.7415 68.6907 69.4993 68.7038 69.4233 68.7615C69.2663 68.8802 45.0347 68.8668 45.0037 68.748C44.9829 68.6679 44.9816 68.6679 44.9762 68.748C44.9691 68.8552 30.739 68.8815 30.6319 68.7744C30.5459 68.6883 30.5483 49.5545 30.6343 49.5198C30.6702 49.5053 30.6605 49.494 30.6103 49.4918C30.5306 49.4882 30.5263 49.9791 30.5263 59.16ZM48.7256 57.756L48.7377 66.024H57.7354H66.7331L66.7452 57.756C66.7519 53.2086 66.7411 49.488 66.7212 49.488C66.7014 49.488 66.6851 53.1978 66.6851 57.732V65.976L57.7471 65.9881L48.8091 66.0002L48.8214 57.7441C48.8311 51.1547 48.8215 49.488 48.7735 49.488C48.7256 49.488 48.7158 51.1572 48.7256 57.756Z" fill="#CCCCCC"/>
<path fill-rule="evenodd" clip-rule="evenodd" d="M30.0464 26.952V29.904H48.0418H66.0373V26.952V24H48.0418H30.0464V26.952ZM30.6823 49.5198C30.6345 49.539 30.6223 51.5129 30.6223 59.164V68.784H37.7965H44.9706V59.136V49.488L37.8565 49.4918C33.9437 49.4939 30.7153 49.5065 30.6823 49.5198ZM48.8695 49.5276C48.8216 49.5581 48.8118 51.2386 48.8215 57.7709L48.8336 65.976L57.7475 65.9881L66.6613 66.0002L66.6492 57.7561L66.6371 49.512L57.7834 49.5007C52.9138 49.4945 48.9025 49.5065 48.8695 49.5276ZM64.6696 57.768V64.008L57.7834 64.0204C51.3518 64.0319 50.8932 64.0273 50.8371 63.9511C50.7739 63.8652 50.7437 51.743 50.8063 51.5797C50.8328 51.5107 51.4761 51.5048 57.7525 51.5159L64.6696 51.528V57.768Z" fill="#505050"/>
<path fill-rule="evenodd" clip-rule="evenodd" d="M37.2206 29.9887C37.1942 30.0082 37.1219 30.1212 37.0599 30.24C36.9978 30.3588 36.7838 30.7692 36.5842 31.152C36.2161 31.858 36.0194 32.2312 35.6734 32.88C35.5678 33.078 35.4086 33.3804 35.3196 33.552C35.2306 33.7236 35.1462 33.8748 35.1322 33.888C35.1183 33.9012 35.0085 34.1064 34.8883 34.344C34.6421 34.831 34.1901 35.6963 33.8924 36.2503C33.783 36.454 33.6935 36.6323 33.6935 36.6466C33.6935 36.6609 35.826 36.667 38.4323 36.6603L43.1711 36.648L43.2049 36.384C43.2235 36.2388 43.2622 35.9904 43.2908 35.832C43.3194 35.6736 43.3539 35.4576 43.3676 35.352C43.3813 35.2464 43.4112 35.1168 43.4341 35.064C43.4569 35.0112 43.4883 34.8492 43.5038 34.704C43.5194 34.5588 43.5527 34.332 43.578 34.2C43.6033 34.068 43.6581 33.744 43.6996 33.48C43.741 33.216 43.7955 32.892 43.8207 32.76C43.8459 32.628 43.8882 32.3958 43.9147 32.244C43.9412 32.0922 43.9865 31.833 44.0153 31.668C44.0441 31.503 44.0865 31.26 44.1094 31.128C44.1323 30.996 44.1736 30.7692 44.201 30.624C44.2285 30.4788 44.2646 30.2682 44.2812 30.156L44.3113 29.952L40.7899 29.9527C38.8532 29.9531 37.247 29.9693 37.2206 29.9887ZM51.706 30.2037C51.7218 30.3425 51.755 30.564 51.7797 30.696C51.8044 30.828 51.8499 31.0764 51.8809 31.248C51.9118 31.4196 51.955 31.6572 51.9768 31.776C51.9987 31.8948 52.0391 32.1216 52.0666 32.28C52.0939 32.4384 52.1393 32.6868 52.1671 32.832C52.1949 32.9772 52.2378 33.2256 52.2624 33.384C52.287 33.5424 52.3311 33.8016 52.3604 33.96C52.3895 34.1184 52.4434 34.4316 52.4799 34.656C52.5165 34.8804 52.5942 35.3232 52.6526 35.64C52.7111 35.9568 52.7719 36.3132 52.7877 36.432L52.8166 36.648L57.5554 36.6603C60.1617 36.667 62.2942 36.6551 62.2942 36.6339C62.2942 36.6126 62.2744 36.5747 62.2502 36.5496C62.2261 36.5245 62.0621 36.2232 61.8857 35.88C61.7095 35.5368 61.5457 35.2355 61.5218 35.2104C61.498 35.1853 61.4784 35.1259 61.4784 35.0784C61.4784 35.0309 61.4622 34.9917 61.4424 34.9913C61.4226 34.9908 61.3524 34.8774 61.2865 34.7393C61.2205 34.6011 61.1552 34.4772 61.1415 34.464C61.1277 34.4508 61.0418 34.2888 60.9505 34.104C60.8592 33.9192 60.7729 33.7572 60.7586 33.744C60.7443 33.7308 60.6579 33.5688 60.5666 33.384C60.4753 33.1992 60.3894 33.0372 60.3756 33.024C60.362 33.0108 60.2999 32.9028 60.238 32.784C59.8642 32.0677 59.2803 30.9423 59.1546 30.696C59.0737 30.5376 58.9967 30.3972 58.9833 30.384C58.97 30.3708 58.9148 30.2736 58.8608 30.168L58.7624 29.976L55.2197 29.9637L51.677 29.9514L51.706 30.2037ZM33.602 40.1705C33.5996 40.2598 33.5743 40.4218 33.5457 40.5305C33.4232 40.9978 33.3866 41.1147 33.3492 41.1576C33.3275 41.1827 33.3089 41.2367 33.3081 41.2776C33.3059 41.3849 32.8716 42.2251 32.7858 42.288C32.7678 42.3012 32.7023 42.3876 32.6403 42.48C32.4162 42.8139 31.7969 43.3743 31.3661 43.6331C29.9921 44.4586 28.3431 44.5691 26.8207 43.9378C26.6698 43.8753 26.5348 43.824 26.5208 43.824C26.5068 43.824 26.4954 49.4297 26.4954 56.2812V68.7384L26.6185 68.7852C26.6909 68.8127 27.5205 68.832 28.6339 68.832H30.5263V59.16V49.488H37.7725H45.0186V59.16V68.832H57.1626C65.4421 68.832 69.3363 68.8162 69.3995 68.7823C69.5381 68.7082 69.5469 43.7899 69.4084 43.8503C67.7858 44.5571 66.0839 44.4879 64.6696 43.6575C64.1993 43.3813 63.5103 42.7572 63.3199 42.4348C63.2722 42.354 63.2163 42.288 63.1956 42.288C63.1749 42.288 63.158 42.2649 63.158 42.2367C63.158 42.2085 63.0972 42.0951 63.0227 41.9847C62.868 41.7552 62.6781 41.3593 62.6781 41.2661C62.6781 41.2315 62.6588 41.1827 62.6353 41.1576C62.5828 41.1019 62.3923 40.3311 62.3847 40.1435C62.3787 39.9982 62.3799 39.9941 62.2851 40.488C61.9572 42.199 60.6264 43.6464 58.9591 44.1057C58.4361 44.2497 58.2833 44.2684 57.6154 44.2702C55.2223 44.2767 53.2969 42.6989 52.8826 40.392C52.8494 40.2072 52.8149 40.0992 52.8059 40.152C52.7632 40.4019 52.6127 41.0034 52.5535 41.16C51.8939 42.9071 50.5341 44.0076 48.6768 44.2975C47.4355 44.4913 45.882 44.077 44.9859 43.3133C44.9283 43.2642 44.785 43.1433 44.6675 43.0445C43.9832 42.4699 43.2126 40.953 43.1917 40.1393C43.1898 40.0671 43.1475 40.2024 43.0976 40.44C42.7335 42.1723 41.4058 43.6835 39.9097 44.0682C39.8296 44.0889 39.6236 44.1417 39.4521 44.1856C39.063 44.2853 37.8271 44.3011 37.4366 44.2116C35.4514 43.7561 34.0909 42.3778 33.6898 40.416C33.6365 40.1556 33.6048 40.0668 33.602 40.1705ZM66.7452 57.756L66.7331 66.024H57.7354H48.7377L48.7256 57.756L48.7134 49.488H57.7354H66.7573L66.7452 57.756Z" fill="#F6FAFF"/>
</g>
<defs>
<clipPath id="clip0_2863_8717">
<rect width="48" height="48" fill="white" transform="translate(24 24)"/>
</clipPath>
</defs>
</svg>
