<svg width="16" height="16" viewBox="0 0 16 16" fill="none" xmlns="http://www.w3.org/2000/svg">
<path d="M8.00001 1.33301C6.68147 1.33301 5.39254 1.724 4.29621 2.45654C3.19988 3.18909 2.3454 4.23028 1.84082 5.44845C1.33623 6.66663 1.20421 8.00707 1.46144 9.30028C1.71868 10.5935 2.35362 11.7814 3.28597 12.7137C4.21832 13.6461 5.4062 14.281 6.69941 14.5382C7.99262 14.7955 9.33306 14.6635 10.5512 14.1589C11.7694 13.6543 12.8106 12.7998 13.5431 11.7035C14.2757 10.6071 14.6667 9.31822 14.6667 7.99967C14.6667 7.1242 14.4942 6.25729 14.1592 5.44845C13.8242 4.63961 13.3331 3.90469 12.7141 3.28563C12.095 2.66657 11.3601 2.17551 10.5512 1.84048C9.7424 1.50545 8.87549 1.33301 8.00001 1.33301V1.33301ZM8.00001 13.333C6.94518 13.333 5.91403 13.0202 5.03697 12.4342C4.15991 11.8481 3.47632 11.0152 3.07266 10.0407C2.66899 9.06611 2.56337 7.99376 2.76916 6.95919C2.97495 5.92463 3.4829 4.97432 4.22878 4.22844C4.97466 3.48256 5.92497 2.97461 6.95953 2.76882C7.9941 2.56303 9.06645 2.66865 10.041 3.07232C11.0155 3.47598 11.8485 4.15957 12.4345 5.03663C13.0206 5.9137 13.3333 6.94484 13.3333 7.99967C13.3333 9.41416 12.7714 10.7707 11.7712 11.7709C10.7711 12.7711 9.4145 13.333 8.00001 13.333V13.333Z" fill="white"/>
<path d="M10 7.33301H8.66668V5.99967C8.66668 5.82286 8.59644 5.65329 8.47141 5.52827C8.34639 5.40325 8.17682 5.33301 8.00001 5.33301C7.8232 5.33301 7.65363 5.40325 7.52861 5.52827C7.40358 5.65329 7.33334 5.82286 7.33334 5.99967V7.33301H6.00001C5.8232 7.33301 5.65363 7.40325 5.52861 7.52827C5.40358 7.65329 5.33334 7.82286 5.33334 7.99967C5.33334 8.17649 5.40358 8.34605 5.52861 8.47108C5.65363 8.5961 5.8232 8.66634 6.00001 8.66634H7.33334V9.99967C7.33334 10.1765 7.40358 10.3461 7.52861 10.4711C7.65363 10.5961 7.8232 10.6663 8.00001 10.6663C8.17682 10.6663 8.34639 10.5961 8.47141 10.4711C8.59644 10.3461 8.66668 10.1765 8.66668 9.99967V8.66634H10C10.1768 8.66634 10.3464 8.5961 10.4714 8.47108C10.5964 8.34605 10.6667 8.17649 10.6667 7.99967C10.6667 7.82286 10.5964 7.65329 10.4714 7.52827C10.3464 7.40325 10.1768 7.33301 10 7.33301Z" fill="white"/>
</svg>
