<svg width="16" height="16" viewBox="0 0 16 16" fill="none" xmlns="http://www.w3.org/2000/svg">
<path d="M14 2.66664C13.9931 2.6054 13.9796 2.54506 13.96 2.48664V2.42664C13.928 2.35245 13.8829 2.28468 13.8267 2.22664C13.7701 2.17348 13.7047 2.13062 13.6333 2.09997H13.5733C13.5119 2.05305 13.4416 2.01903 13.3667 1.99997H13.3333C13.267 1.98992 13.1996 1.98992 13.1333 1.99997L1.13334 5.99997C0.999956 6.04381 0.883823 6.12864 0.801492 6.24237C0.719161 6.35609 0.674835 6.49291 0.674835 6.63331C0.674835 6.77371 0.719161 6.91052 0.801492 7.02425C0.883823 7.13797 0.999956 7.2228 1.13334 7.26664L6.82 9.15997L8.71333 14.8466C8.75717 14.98 8.842 15.0962 8.95573 15.1785C9.06945 15.2608 9.20627 15.3051 9.34667 15.3051C9.48707 15.3051 9.62388 15.2608 9.73761 15.1785C9.85133 15.0962 9.93616 14.98 9.98 14.8466L13.98 2.84664C13.9948 2.78783 14.0016 2.72727 14 2.66664ZM10.8667 4.19331L7.15333 7.90664L3.44 6.66664L10.8667 4.19331ZM9.33333 12.56L8.09334 8.84664L11.8067 5.13331L9.33333 12.56Z" fill="white"/>
</svg>
