<svg width="48" height="48" viewBox="0 0 48 48" fill="none" xmlns="http://www.w3.org/2000/svg">
<rect width="48" height="48" rx="24" fill="url(#paint0_linear_2863_8614)"/>
<path d="M33.3333 12H14.6667C13.2 12 12.0133 13.2 12.0133 14.6667L12 33.3333C12 34.8 13.2 36 14.6667 36H33.3333C34.8 36 36 34.8 36 33.3333V14.6667C36 13.2 34.8 12 33.3333 12ZM30.6667 26.6667H26.6667V30.6667C26.6667 31.4 26.0667 32 25.3333 32H22.6667C21.9333 32 21.3333 31.4 21.3333 30.6667V26.6667H17.3333C16.6 26.6667 16 26.0667 16 25.3333V22.6667C16 21.9333 16.6 21.3333 17.3333 21.3333H21.3333V17.3333C21.3333 16.6 21.9333 16 22.6667 16H25.3333C26.0667 16 26.6667 16.6 26.6667 17.3333V21.3333H30.6667C31.4 21.3333 32 21.9333 32 22.6667V25.3333C32 26.0667 31.4 26.6667 30.6667 26.6667Z" fill="url(#paint1_linear_2863_8614)"/>
<defs>
<linearGradient id="paint0_linear_2863_8614" x1="24" y1="0" x2="24" y2="48" gradientUnits="userSpaceOnUse">
<stop stop-color="#FBEFD0"/>
<stop offset="1" stop-color="#FBEFD0" stop-opacity="0"/>
</linearGradient>
<linearGradient id="paint1_linear_2863_8614" x1="24" y1="12" x2="24" y2="36" gradientUnits="userSpaceOnUse">
<stop stop-color="#EECA6D" stop-opacity="0.5"/>
<stop offset="1" stop-color="#EECA6D"/>
</linearGradient>
</defs>
</svg>
