<svg width="16" height="16" viewBox="0 0 16 16" fill="none" xmlns="http://www.w3.org/2000/svg">
<path d="M8.00001 7.33333C8.52743 7.33333 9.043 7.17694 9.48153 6.88392C9.92006 6.5909 10.2619 6.17443 10.4637 5.68716C10.6655 5.19989 10.7183 4.66371 10.6154 4.14643C10.5125 3.62914 10.2586 3.15399 9.88563 2.78105C9.51269 2.40811 9.03753 2.15413 8.52025 2.05124C8.00297 1.94835 7.46679 2.00116 6.97952 2.20299C6.49225 2.40482 6.07577 2.74662 5.78276 3.18515C5.48974 3.62368 5.33334 4.13925 5.33334 4.66667C5.33334 5.37391 5.61429 6.05219 6.11439 6.55229C6.61449 7.05238 7.29277 7.33333 8.00001 7.33333ZM8.00001 3.33333C8.26372 3.33333 8.5215 3.41153 8.74077 3.55804C8.96004 3.70455 9.13093 3.91279 9.23185 4.15642C9.33277 4.40006 9.35917 4.66815 9.30772 4.92679C9.25628 5.18543 9.12929 5.42301 8.94282 5.60948C8.75635 5.79595 8.51877 5.92294 8.26013 5.97438C8.00149 6.02583 7.7334 5.99942 7.48977 5.89851C7.24613 5.79759 7.03789 5.62669 6.89138 5.40743C6.74488 5.18816 6.66668 4.93038 6.66668 4.66667C6.66668 4.31305 6.80715 3.97391 7.0572 3.72386C7.30725 3.47381 7.64639 3.33333 8.00001 3.33333Z" fill="white"/>
<path d="M8.00001 8.66666C6.76233 8.66666 5.57535 9.15832 4.70018 10.0335C3.82501 10.9087 3.33334 12.0956 3.33334 13.3333C3.33334 13.5101 3.40358 13.6797 3.52861 13.8047C3.65363 13.9298 3.8232 14 4.00001 14C4.17682 14 4.34639 13.9298 4.47141 13.8047C4.59644 13.6797 4.66668 13.5101 4.66668 13.3333C4.66668 12.4493 5.01787 11.6014 5.64299 10.9763C6.26811 10.3512 7.11596 9.99999 8.00001 9.99999C8.88407 9.99999 9.73191 10.3512 10.357 10.9763C10.9822 11.6014 11.3333 12.4493 11.3333 13.3333C11.3333 13.5101 11.4036 13.6797 11.5286 13.8047C11.6536 13.9298 11.8232 14 12 14C12.1768 14 12.3464 13.9298 12.4714 13.8047C12.5964 13.6797 12.6667 13.5101 12.6667 13.3333C12.6667 12.0956 12.175 10.9087 11.2998 10.0335C10.4247 9.15832 9.23769 8.66666 8.00001 8.66666Z" fill="white"/>
</svg>
