<svg width="16" height="16" viewBox="0 0 16 16" fill="none" xmlns="http://www.w3.org/2000/svg">
<path d="M12.6666 13.333H3.33329C3.15648 13.333 2.98691 13.4032 2.86189 13.5283C2.73686 13.6533 2.66663 13.8229 2.66663 13.9997C2.66663 14.1765 2.73686 14.3461 2.86189 14.4711C2.98691 14.5961 3.15648 14.6663 3.33329 14.6663H12.6666C12.8434 14.6663 13.013 14.5961 13.138 14.4711C13.2631 14.3461 13.3333 14.1765 13.3333 13.9997C13.3333 13.8229 13.2631 13.6533 13.138 13.5283C13.013 13.4032 12.8434 13.333 12.6666 13.333Z" fill="white"/>
<path d="M3.33329 12.0002H3.39329L6.17329 11.7469C6.47782 11.7166 6.76264 11.5824 6.97995 11.3669L12.98 5.3669C13.2128 5.12088 13.3387 4.79257 13.3299 4.45392C13.3212 4.11527 13.1786 3.7939 12.9333 3.56023L11.1066 1.73356C10.8682 1.50963 10.5558 1.38114 10.2288 1.37253C9.90187 1.36393 9.58314 1.47581 9.33329 1.6869L3.33329 7.6869C3.1178 7.90421 2.98362 8.18903 2.95329 8.49356L2.66662 11.2736C2.65764 11.3712 2.67031 11.4696 2.70373 11.5618C2.73715 11.654 2.79049 11.7377 2.85995 11.8069C2.92225 11.8687 2.99612 11.9176 3.07735 11.9507C3.15857 11.9839 3.24555 12.0007 3.33329 12.0002ZM10.18 2.6669L12 4.4869L10.6666 5.7869L8.87995 4.00023L10.18 2.6669ZM4.24662 8.6069L7.99995 4.88023L9.79995 6.68023L6.06662 10.4136L4.06662 10.6002L4.24662 8.6069Z" fill="white"/>
</svg>
