<svg width="16" height="16" viewBox="0 0 16 16" fill="none" xmlns="http://www.w3.org/2000/svg">
<g clip-path="url(#clip0_2748_640)">
<path d="M10 2.66667L10 11.3333L9.2 10.2667C9.14747 10.1966 9.08166 10.1376 9.00633 10.093C8.93099 10.0484 8.84761 10.0191 8.76094 10.0067C8.67428 9.99432 8.58602 9.99913 8.50121 10.0209C8.4164 10.0426 8.3367 10.0808 8.26666 10.1333C8.18387 10.1954 8.11666 10.276 8.07038 10.3685C8.02409 10.4611 8 10.5632 8 10.6667C8 10.8109 8.04678 10.9513 8.13333 11.0667L10.1333 13.7333C10.1955 13.8149 10.2757 13.881 10.3677 13.9264C10.4596 13.9719 10.5608 13.9956 10.6633 13.9956C10.7659 13.9956 10.8671 13.9719 10.959 13.9264C11.0509 13.881 11.1311 13.8149 11.1933 13.7333L13.1933 11.16C13.3021 11.0203 13.3509 10.8432 13.329 10.6675C13.3071 10.4918 13.2163 10.3321 13.0767 10.2233C12.937 10.1146 12.7598 10.0658 12.5842 10.0877C12.4085 10.1096 12.2487 10.2003 12.14 10.34L11.3333 11.3867L11.3333 2.66667C11.3333 2.48986 11.2631 2.32029 11.1381 2.19526C11.013 2.07024 10.8435 2 10.6667 2C10.4899 2 10.3203 2.07024 10.1953 2.19526C10.0702 2.32029 10 2.48986 10 2.66667V2.66667Z" fill="#808080"/>
<path d="M5.33334 13.3338L5.33334 4.66714L6.13334 5.73381C6.23943 5.87526 6.39736 5.96877 6.57239 5.99378C6.74743 6.01878 6.92523 5.97323 7.06667 5.86714C7.20812 5.76106 7.30164 5.60312 7.32664 5.42809C7.35165 5.25306 7.30609 5.07526 7.20001 4.93381L5.20001 2.26714C5.13779 2.18561 5.0576 2.11952 4.96568 2.07403C4.87375 2.02855 4.77257 2.00488 4.67001 2.00488C4.56744 2.00488 4.46626 2.02855 4.37434 2.07403C4.28241 2.11952 4.20222 2.18561 4.14001 2.26714L2.14001 4.84048C2.04969 4.95684 2.00047 5.09984 2.00001 5.24714C2.00025 5.34896 2.02381 5.44936 2.06888 5.54065C2.11395 5.63195 2.17933 5.7117 2.26001 5.77381C2.39899 5.88207 2.57517 5.93092 2.75005 5.90968C2.92494 5.88845 3.08431 5.79885 3.19334 5.66048L4.00001 4.61381L4.00001 13.3338C4.00001 13.5106 4.07024 13.6802 4.19527 13.8052C4.32029 13.9302 4.48986 14.0005 4.66667 14.0005C4.84348 14.0005 5.01305 13.9302 5.13808 13.8052C5.2631 13.6802 5.33334 13.5106 5.33334 13.3338Z" fill="#808080"/>
</g>
<defs>
<clipPath id="clip0_2748_640">
<rect width="16" height="16" fill="white"/>
</clipPath>
</defs>
</svg>
