<svg width="48" height="48" viewBox="0 0 48 48" fill="none" xmlns="http://www.w3.org/2000/svg">
<rect width="48" height="48" rx="24" fill="url(#paint0_linear_2863_8622)"/>
<path d="M23.9867 10.6667C16.6267 10.6667 10.6667 16.64 10.6667 24C10.6667 31.36 16.6267 37.3333 23.9867 37.3333C31.36 37.3333 37.3333 31.36 37.3333 24C37.3333 16.64 31.36 10.6667 23.9867 10.6667ZM19.3333 18.6667C20.44 18.6667 21.3333 19.56 21.3333 20.6667C21.3333 21.7733 20.44 22.6667 19.3333 22.6667C18.2267 22.6667 17.3333 21.7733 17.3333 20.6667C17.3333 19.56 18.2267 18.6667 19.3333 18.6667ZM30.3333 27.6667C29.0667 29.8533 26.7067 31.3333 24 31.3333C21.2933 31.3333 18.9333 29.8533 17.6667 27.6667C17.4133 27.2267 17.7467 26.6667 18.2533 26.6667H29.7467C30.2667 26.6667 30.5867 27.2267 30.3333 27.6667ZM28.6667 22.6667C27.56 22.6667 26.6667 21.7733 26.6667 20.6667C26.6667 19.56 27.56 18.6667 28.6667 18.6667C29.7733 18.6667 30.6667 19.56 30.6667 20.6667C30.6667 21.7733 29.7733 22.6667 28.6667 22.6667Z" fill="url(#paint1_linear_2863_8622)"/>
<defs>
<linearGradient id="paint0_linear_2863_8622" x1="24" y1="0" x2="24" y2="48" gradientUnits="userSpaceOnUse">
<stop stop-color="#D5F6D6"/>
<stop offset="1" stop-color="#D5F6D6" stop-opacity="0"/>
</linearGradient>
<linearGradient id="paint1_linear_2863_8622" x1="24" y1="10.6667" x2="24" y2="37.3333" gradientUnits="userSpaceOnUse">
<stop stop-color="#78D37C" stop-opacity="0.5"/>
<stop offset="1" stop-color="#78D37C"/>
</linearGradient>
</defs>
</svg>
