<svg width="72" height="72" viewBox="0 0 72 72" fill="none" xmlns="http://www.w3.org/2000/svg">
<rect width="72" height="72" rx="36" fill="url(#paint0_linear_3245_19797)"/>
<path d="M25.9204 25.5284C26.2875 20.2047 30.7223 16 36.1393 16C41.5562 16 45.991 20.2047 46.3582 25.5284C46.3744 25.7647 46.3582 35.605 36.1393 35.605C25.9203 35.6049 25.904 25.7647 25.9204 25.5284Z" fill="url(#paint1_linear_3245_19797)"/>
<path d="M36.1393 35.057C30.7224 35.057 26.2882 30.8521 25.921 25.5284C25.9047 25.7647 25.8958 26.0031 25.8958 26.2434C25.8958 31.9008 30.4819 36.487 36.1393 36.487C41.7966 36.487 46.3827 31.9008 46.3827 26.2434C46.3827 26.0031 46.3738 25.7647 46.3575 25.5284C45.9904 30.8521 41.5561 35.057 36.1393 35.057Z" fill="#FFAC3E"/>
<path d="M30.0759 47.299L26.0369 43.0052C25.9776 42.9421 25.9075 42.8885 25.8275 42.8553C25.5877 42.7562 25.3261 42.8201 25.1605 42.9962L21.1248 47.2865C20.9934 47.4262 20.9259 47.6191 20.9594 47.8079C21.0116 48.1015 21.263 48.3032 21.547 48.3032H22.7169V53.9743L23.42 55.297H27.7689L28.472 53.9743V48.3032H29.6246C29.8163 48.3032 30.003 48.2202 30.1176 48.0665C30.2959 47.8273 30.2705 47.5059 30.0759 47.299Z" fill="url(#paint2_linear_3245_19797)"/>
<path d="M40.6091 43.1876L36.5731 38.8969C36.403 38.716 36.1312 38.6535 35.8864 38.7647C35.8158 38.7969 35.7537 38.8452 35.7006 38.9017L31.6695 43.1872C31.5381 43.3269 31.4706 43.5198 31.5041 43.7087C31.5562 44.0022 31.8077 44.2039 32.0917 44.2039H33.2615V53.9742L33.9647 55.2969H38.3136L39.0167 53.9742V44.2039H40.1866C40.4705 44.2039 40.7219 44.0024 40.7741 43.7089C40.8077 43.5201 40.7404 43.3272 40.6091 43.1876Z" fill="url(#paint3_linear_3245_19797)"/>
<path d="M51.1538 39.3948L47.1179 35.1042C47.0053 34.9845 46.8482 34.9166 46.6839 34.9166C46.5196 34.9166 46.3625 34.9845 46.2499 35.1042L42.214 39.3948C42.0827 39.5345 42.0152 39.7274 42.0488 39.9162C42.1011 40.2097 42.3525 40.4112 42.6364 40.4112H43.8063V53.9742L44.5094 55.2969H48.8583L49.5614 53.9742V40.4112H50.7312C51.0151 40.4112 51.2665 40.2097 51.3188 39.9162C51.3525 39.7274 51.2851 39.5344 51.1538 39.3948Z" fill="url(#paint4_linear_3245_19797)"/>
<path d="M22.7168 53.9741V55.4041C22.7168 55.7332 22.9836 56 23.3127 56H27.8762C28.2052 56 28.472 55.7332 28.472 55.4041V53.9741H22.7168Z" fill="url(#paint5_linear_3245_19797)"/>
<path d="M33.2617 53.9741V55.4041C33.2617 55.7332 33.5285 56 33.8576 56H38.4211C38.7502 56 39.017 55.7332 39.017 55.4041V53.9741H33.2617Z" fill="url(#paint6_linear_3245_19797)"/>
<path d="M43.8064 53.9741V55.4041C43.8064 55.7332 44.0731 56 44.4023 56H48.9658C49.2948 56 49.5616 55.7332 49.5616 55.4041V53.9741H43.8064Z" fill="url(#paint7_linear_3245_19797)"/>
<path d="M28.9309 25.5284C29.29 21.8638 32.3803 19.0002 36.1393 19.0002C39.8896 19.0002 42.9742 21.8504 43.3451 25.5029C43.3698 25.7464 43.3452 32.7836 36.1393 32.7836C28.9308 32.7835 28.9079 25.7637 28.9309 25.5284Z" fill="url(#paint8_linear_3245_19797)"/>
<path d="M36.1393 32.0566C32.3803 32.0566 29.2903 29.1931 28.9312 25.5284C28.9081 25.7637 28.896 26.0021 28.896 26.2434C28.896 30.2438 32.1389 33.4866 36.1392 33.4866C40.1395 33.4866 43.3824 30.2438 43.3824 26.2434C43.3824 26.0021 43.3703 25.7637 43.3472 25.5284C42.9883 29.1931 39.8983 32.0566 36.1393 32.0566Z" fill="#F9CF58"/>
<path d="M35.9125 29.0376C34.9749 28.9805 34.7173 28.4162 34.6695 28.2837C34.6012 28.0285 34.3691 27.8404 34.0923 27.8404C33.762 27.8404 33.4941 28.1082 33.4941 28.4386C33.4941 28.4865 33.5004 28.533 33.5111 28.5777L33.5109 28.5778C33.5114 28.5799 33.5126 28.584 33.5141 28.5892C33.5214 28.6174 33.5301 28.6451 33.5412 28.6715C33.6516 28.9761 34.0941 29.9211 35.3979 30.1735V30.9679C35.3979 31.2976 35.6652 31.5648 35.9949 31.5648C36.3247 31.5648 36.592 31.2976 36.592 30.9679V30.1915C37.1634 30.092 37.5473 29.8422 37.7873 29.6164C38.2338 29.1961 38.5005 28.5609 38.5005 27.917C38.5005 27.3121 38.2632 25.8789 36.0655 25.6364C35.6302 25.5883 35.3196 25.4498 35.1424 25.2246C34.986 25.0258 34.9691 24.8061 34.9691 24.7208C34.9691 24.6158 34.9979 23.695 35.9949 23.695C36.6491 23.695 36.9132 24.111 36.9629 24.2015C37.0514 24.4212 37.2662 24.5765 37.5176 24.5765C37.848 24.5765 38.1158 24.3087 38.1158 23.9783C38.1158 23.8801 38.0916 23.7876 38.0497 23.7058L38.05 23.7057C37.8817 23.3399 37.4066 22.7677 36.592 22.5707V21.7695C36.592 21.4398 36.3247 21.1725 35.9949 21.1725C35.6652 21.1725 35.3979 21.4398 35.3979 21.7695V22.5683C34.2195 22.848 33.7751 23.9475 33.7751 24.7208C33.7751 25.5806 34.3406 26.6471 35.9345 26.823C37.3064 26.9744 37.3064 27.6838 37.3064 27.9169C37.3064 28.1646 37.2178 28.5126 36.969 28.7467C36.7338 28.9681 36.3786 29.0661 35.9125 29.0376Z" fill="url(#paint9_linear_3245_19797)"/>
<path d="M23.0351 26.4386C23.0351 26.1089 22.7679 25.8416 22.4381 25.8416H18.9366C18.6069 25.8416 18.3396 26.1088 18.3396 26.4386C18.3396 26.7683 18.6069 27.0355 18.9366 27.0355H22.4381C22.7679 27.0355 23.0351 26.7683 23.0351 26.4386Z" fill="#FFE27A"/>
<path d="M23.2104 31.1237L21.9651 31.6116C21.6581 31.7319 21.5067 32.0782 21.627 32.3853C21.7192 32.6207 21.9445 32.7647 22.183 32.7647C22.2554 32.7647 22.3291 32.7514 22.4006 32.7234L23.6459 32.2355C23.9529 32.1152 24.1042 31.7689 23.984 31.4618C23.8637 31.1549 23.5174 31.0034 23.2104 31.1237Z" fill="#FFE27A"/>
<path d="M21.9651 21.2654L23.2104 21.7533C23.282 21.7814 23.3556 21.7946 23.4281 21.7946C23.6666 21.7946 23.8918 21.6507 23.9841 21.4152C24.1043 21.1083 23.953 20.7619 23.646 20.6415L22.4006 20.1536C22.0935 20.0334 21.7474 20.1847 21.627 20.4918C21.5067 20.7988 21.6581 21.1451 21.9651 21.2654Z" fill="#FFE27A"/>
<path d="M53.0634 25.8416H49.5619C49.2321 25.8416 48.9648 26.1088 48.9648 26.4386C48.9648 26.7683 49.2321 27.0355 49.5619 27.0355H53.0634C53.3931 27.0355 53.6604 26.7683 53.6604 26.4386C53.6603 26.1089 53.393 25.8416 53.0634 25.8416Z" fill="#FFE27A"/>
<path d="M48.3539 32.2354L49.5992 32.7233C49.6708 32.7514 49.7445 32.7646 49.8169 32.7646C50.0554 32.7646 50.2806 32.6207 50.3729 32.3852C50.4931 32.0783 50.3418 31.7319 50.0349 31.6115L48.7896 31.1236C48.4823 31.0033 48.1362 31.1547 48.0159 31.4618C47.8957 31.7688 48.047 32.1152 48.3539 32.2354Z" fill="#FFE27A"/>
<path d="M48.5719 21.7946C48.6443 21.7946 48.7181 21.7814 48.7896 21.7534L50.0349 21.2655C50.3418 21.1452 50.4932 20.7989 50.3729 20.4918C50.2526 20.1848 49.9061 20.0336 49.5993 20.1537L48.3539 20.6416C48.047 20.7619 47.8957 21.1082 48.0159 21.4153C48.1082 21.6507 48.3334 21.7946 48.5719 21.7946Z" fill="#FFE27A"/>
<defs>
<linearGradient id="paint0_linear_3245_19797" x1="36" y1="0" x2="36" y2="72" gradientUnits="userSpaceOnUse">
<stop stop-color="#3F69EB" stop-opacity="0.1"/>
<stop offset="1" stop-color="#3F69EB" stop-opacity="0"/>
</linearGradient>
<linearGradient id="paint1_linear_3245_19797" x1="36.1393" y1="16" x2="36.1393" y2="35.605" gradientUnits="userSpaceOnUse">
<stop stop-color="#FFBA57" stop-opacity="0.8"/>
<stop offset="1" stop-color="#FFBA57"/>
</linearGradient>
<linearGradient id="paint2_linear_3245_19797" x1="25.5943" y1="42.8086" x2="25.5943" y2="55.297" gradientUnits="userSpaceOnUse">
<stop stop-color="#6B8CF0"/>
<stop offset="1" stop-color="#3F69EB"/>
</linearGradient>
<linearGradient id="paint3_linear_3245_19797" x1="36.1392" y1="38.7094" x2="36.1392" y2="55.2969" gradientUnits="userSpaceOnUse">
<stop stop-color="#6B8CF0"/>
<stop offset="1" stop-color="#3F69EB"/>
</linearGradient>
<linearGradient id="paint4_linear_3245_19797" x1="46.6838" y1="34.9166" x2="46.6838" y2="55.2969" gradientUnits="userSpaceOnUse">
<stop stop-color="#6B8CF0"/>
<stop offset="1" stop-color="#3F69EB"/>
</linearGradient>
<linearGradient id="paint5_linear_3245_19797" x1="25.5944" y1="53.9741" x2="25.5944" y2="56" gradientUnits="userSpaceOnUse">
<stop stop-color="#4667CE"/>
<stop offset="1" stop-color="#3050B3"/>
</linearGradient>
<linearGradient id="paint6_linear_3245_19797" x1="36.1393" y1="53.9741" x2="36.1393" y2="56" gradientUnits="userSpaceOnUse">
<stop stop-color="#4667CE"/>
<stop offset="1" stop-color="#3050B3"/>
</linearGradient>
<linearGradient id="paint7_linear_3245_19797" x1="46.684" y1="53.9741" x2="46.684" y2="56" gradientUnits="userSpaceOnUse">
<stop stop-color="#4667CE"/>
<stop offset="1" stop-color="#3050B3"/>
</linearGradient>
<linearGradient id="paint8_linear_3245_19797" x1="36.1381" y1="19.0002" x2="36.1381" y2="32.7836" gradientUnits="userSpaceOnUse">
<stop stop-color="#FFE27A" stop-opacity="0.8"/>
<stop offset="1" stop-color="#FFE27A"/>
</linearGradient>
<linearGradient id="paint9_linear_3245_19797" x1="35.9973" y1="21.1725" x2="35.9973" y2="31.5648" gradientUnits="userSpaceOnUse">
<stop stop-color="#3F69EB" stop-opacity="0.8"/>
<stop offset="1" stop-color="#3F69EB"/>
</linearGradient>
</defs>
</svg>
