<svg width="40" height="40" viewBox="0 0 40 40" fill="none" xmlns="http://www.w3.org/2000/svg">
<path d="M0.976949 23.3335L12.1476 12.1819L23.3386 1.01017C24.6421 -0.291151 26.7631 -0.291151 28.0667 1.01017L28.0978 1.04119C28.6612 1.60384 28.8786 2.42204 28.6652 3.17626C28.5374 3.62798 28.664 4.11415 28.9955 4.44516C29.3271 4.7761 29.8143 4.90242 30.2664 4.775C31.0221 4.56203 31.8419 4.77883 32.4056 5.34149L34.6836 7.61562C35.2471 8.17827 35.4644 8.99647 35.251 9.75069C35.1231 10.2024 35.2498 10.6886 35.5813 11.0196C35.9128 11.3504 36.3999 11.4771 36.8522 11.3494C37.6081 11.1365 38.4277 11.3533 38.9913 11.9159L39.0223 11.9468C40.3259 13.2481 40.3259 15.3654 39.0223 16.6668L27.8857 27.7841L16.6605 38.9903C16.0305 39.6192 15.191 39.9656 14.2964 39.9656C13.4017 39.9656 12.5622 39.6192 11.9323 38.9903C11.3548 38.4138 11.1476 37.5704 11.3917 36.7892C11.5359 36.3274 11.4131 35.8286 11.0715 35.4875C10.7299 35.1464 10.23 35.024 9.76777 35.1678C8.98489 35.4114 8.14005 35.2045 7.56271 34.6281L5.3467 32.4158C4.7692 31.8394 4.56201 30.9959 4.80608 30.2148C4.95029 29.753 4.82748 29.2541 4.48592 28.9131C4.14428 28.572 3.64444 28.4494 3.18217 28.5934C2.39929 28.8369 1.55453 28.6302 0.977106 28.0537C0.346952 27.4247 0 26.5866 0 25.6935C0 24.8006 0.346952 23.9624 0.976949 23.3335Z" fill="url(#paint0_linear_5026_25133)"/>
<path d="M0.976949 23.3337L12.1476 12.1821L27.8857 27.7844L16.6605 38.9905C16.0305 39.6194 15.191 39.9658 14.2963 39.9658C13.4018 39.9658 12.5622 39.6194 11.9323 38.9905C11.3548 38.414 11.1476 37.5705 11.3917 36.7894C11.5359 36.3276 11.4131 35.8288 11.0715 35.4877C10.7299 35.1466 10.23 35.0241 9.76777 35.168C8.98489 35.4116 8.14005 35.2047 7.5627 34.6283L5.3467 32.416C4.7692 31.8396 4.56201 30.9961 4.80607 30.215C4.95029 29.7532 4.82748 29.2543 4.48592 28.9133C4.14428 28.5722 3.64444 28.4496 3.18217 28.5935C2.39929 28.8371 1.55453 28.6304 0.977105 28.0539C0.346952 27.4249 0 26.5868 0 25.6937C0 24.8008 0.346952 23.9626 0.976949 23.3337Z" fill="url(#paint1_linear_5026_25133)"/>
<path d="M31.5903 16.674C31.9587 16.674 32.3269 16.5335 32.6079 16.2524C33.1699 15.6904 33.1699 14.7792 32.6079 14.2171L29.0642 10.6733L25.4842 7.0934C24.9221 6.53137 24.0109 6.53137 23.4489 7.0934C22.8868 7.65543 22.8868 8.56667 23.4489 9.1287L26.5695 12.2493L30.5726 16.2524C30.8536 16.5335 31.2221 16.674 31.5903 16.674Z" fill="#D6EFFF"/>
<path d="M26.6443 17.389C27.0126 17.389 27.3808 17.2485 27.6618 16.9675C28.2239 16.4054 28.2239 15.4942 27.6618 14.9321L26.2603 13.5307L24.8123 12.0826C24.2503 11.5206 23.339 11.5207 22.777 12.0826C22.215 12.6447 22.215 13.5559 22.777 14.1179L23.9661 15.307L25.6265 16.9674C25.9075 17.2484 26.2759 17.389 26.6443 17.389Z" fill="#D6EFFF"/>
<path d="M7.78476 22.8584L10.5664 20.0768C11.0547 19.5884 11.7054 19.3193 12.3982 19.3193C13.091 19.3193 13.7415 19.5884 14.23 20.0768L19.7253 25.5721C20.2137 26.0605 20.4828 26.7111 20.4828 27.4039C20.4828 28.0967 20.2137 28.7473 19.7253 29.2357L16.9437 32.0173C16.4554 32.5057 15.8047 32.7747 15.1119 32.7747C14.4191 32.7747 13.7686 32.5057 13.2801 32.0173L7.78476 26.522C7.29641 26.0336 7.02734 25.383 7.02734 24.6902C7.02734 23.9974 7.29633 23.3467 7.78476 22.8584Z" fill="#EDF8FF"/>
<path d="M23.4488 7.09389C24.0108 6.53186 24.9221 6.53186 25.4841 7.09389L29.0641 10.6738L27.0446 12.725L23.4488 9.12919C22.8869 8.56716 22.8869 7.65591 23.4488 7.09389Z" fill="#EDF8FF"/>
<path d="M22.777 12.0831C23.339 11.5211 24.2502 11.5211 24.8123 12.0831L26.2515 13.5224L24.232 15.5735L22.7768 14.1185C22.215 13.5564 22.215 12.6453 22.777 12.0831Z" fill="#EDF8FF"/>
<defs>
<linearGradient id="paint0_linear_5026_25133" x1="20" y1="0.0341797" x2="20" y2="39.9656" gradientUnits="userSpaceOnUse">
<stop stop-color="#3F69EB"/>
<stop offset="1" stop-color="#99B0F4"/>
</linearGradient>
<linearGradient id="paint1_linear_5026_25133" x1="13.9428" y1="12.1821" x2="13.9428" y2="39.9658" gradientUnits="userSpaceOnUse">
<stop stop-color="#3050B2"/>
<stop offset="1" stop-color="#6E88D8"/>
</linearGradient>
</defs>
</svg>
