<svg width="16" height="16" viewBox="0 0 16 16" fill="none" xmlns="http://www.w3.org/2000/svg">
<path d="M14 3.99962H10.6666V2.88628C10.651 2.4595 10.4668 2.05632 10.1544 1.76515C9.84194 1.47397 9.42681 1.31855 8.99998 1.33295H6.99998C6.57315 1.31855 6.15802 1.47397 5.8456 1.76515C5.53318 2.05632 5.34895 2.4595 5.33331 2.88628V3.99962H1.99998C1.82317 3.99962 1.6536 4.06986 1.52858 4.19488C1.40355 4.3199 1.33331 4.48947 1.33331 4.66628C1.33331 4.84309 1.40355 5.01266 1.52858 5.13769C1.6536 5.26271 1.82317 5.33295 1.99998 5.33295H2.66665V12.6663C2.66665 13.1967 2.87736 13.7054 3.25243 14.0805C3.62751 14.4556 4.13621 14.6663 4.66665 14.6663H11.3333C11.8637 14.6663 12.3725 14.4556 12.7475 14.0805C13.1226 13.7054 13.3333 13.1967 13.3333 12.6663V5.33295H14C14.1768 5.33295 14.3464 5.26271 14.4714 5.13769C14.5964 5.01266 14.6666 4.84309 14.6666 4.66628C14.6666 4.48947 14.5964 4.3199 14.4714 4.19488C14.3464 4.06986 14.1768 3.99962 14 3.99962ZM6.66665 2.88628C6.66665 2.77962 6.80665 2.66628 6.99998 2.66628H8.99998C9.19331 2.66628 9.33331 2.77962 9.33331 2.88628V3.99962H6.66665V2.88628ZM12 12.6663C12 12.8431 11.9297 13.0127 11.8047 13.1377C11.6797 13.2627 11.5101 13.333 11.3333 13.333H4.66665C4.48984 13.333 4.32027 13.2627 4.19524 13.1377C4.07022 13.0127 3.99998 12.8431 3.99998 12.6663V5.33295H12V12.6663Z" fill="#EE7878"/>
<path d="M5.99998 11.333C6.17679 11.333 6.34636 11.2628 6.47138 11.1377C6.59641 11.0127 6.66665 10.8432 6.66665 10.6663V7.99967C6.66665 7.82286 6.59641 7.65329 6.47138 7.52827C6.34636 7.40325 6.17679 7.33301 5.99998 7.33301C5.82317 7.33301 5.6536 7.40325 5.52858 7.52827C5.40355 7.65329 5.33331 7.82286 5.33331 7.99967V10.6663C5.33331 10.8432 5.40355 11.0127 5.52858 11.1377C5.6536 11.2628 5.82317 11.333 5.99998 11.333Z" fill="#EE7878"/>
<path d="M9.99998 11.333C10.1768 11.333 10.3464 11.2628 10.4714 11.1377C10.5964 11.0127 10.6666 10.8432 10.6666 10.6663V7.99967C10.6666 7.82286 10.5964 7.65329 10.4714 7.52827C10.3464 7.40325 10.1768 7.33301 9.99998 7.33301C9.82317 7.33301 9.6536 7.40325 9.52858 7.52827C9.40355 7.65329 9.33331 7.82286 9.33331 7.99967V10.6663C9.33331 10.8432 9.40355 11.0127 9.52858 11.1377C9.6536 11.2628 9.82317 11.333 9.99998 11.333Z" fill="#EE7878"/>
</svg>
