<svg width="48" height="48" viewBox="0 0 48 48" fill="none" xmlns="http://www.w3.org/2000/svg">
<rect width="48" height="48" rx="24" fill="url(#paint0_linear_2863_8606)"/>
<path d="M36.3333 22C35.7867 22 35.3333 22.4533 35.3333 23H33.28C33.08 21.1733 32.36 19.4933 31.2533 18.1333L32.7067 16.68L32.72 16.6933C33.1067 17.08 33.7467 17.08 34.1333 16.6933C34.52 16.3067 34.52 15.6667 34.1333 15.28L32.72 13.8667C32.3333 13.48 31.6933 13.48 31.3067 13.8667C30.92 14.2533 30.92 14.88 31.2933 15.2667L29.84 16.72C28.48 15.6267 26.8133 14.9067 24.9867 14.7067V12.6667H25C25.5467 12.6667 26 12.2133 26 11.6667C26 11.12 25.5467 10.6667 25 10.6667H23C22.4533 10.6667 22 11.12 22 11.6667C22 12.2133 22.44 12.6533 22.9867 12.6667V14.7333C21.16 14.92 19.4933 15.6533 18.1333 16.7467L16.68 15.2933L16.6933 15.28C17.08 14.8933 17.08 14.2533 16.6933 13.8667C16.3067 13.48 15.6667 13.48 15.28 13.8667L13.8667 15.28C13.48 15.6667 13.48 16.3067 13.8667 16.6933C14.2533 17.08 14.88 17.08 15.2667 16.7067L16.72 18.16C15.6267 19.52 14.9067 21.1733 14.72 23H12.6667C12.6667 22.4533 12.2133 22 11.6667 22C11.12 22 10.6667 22.4533 10.6667 23V25C10.6667 25.5467 11.12 26 11.6667 26C12.2133 26 12.6667 25.5467 12.6667 25H14.72C14.92 26.8267 15.64 28.48 16.72 29.84L15.2667 31.2933C14.88 30.9067 14.2533 30.92 13.8667 31.3067C13.48 31.6933 13.48 32.3333 13.8667 32.72L15.28 34.1333C15.6667 34.52 16.3067 34.52 16.6933 34.1333C17.08 33.7467 17.08 33.1067 16.6933 32.72L16.68 32.7067L18.1333 31.2533C19.4933 32.3467 21.1467 33.0667 22.9733 33.2667V35.3333C22.4267 35.3467 21.9867 35.7867 21.9867 36.3333C21.9867 36.88 22.44 37.3333 22.9867 37.3333H24.9867C25.5333 37.3333 25.9867 36.88 25.9867 36.3333C25.9867 35.7867 25.5333 35.3333 24.9867 35.3333H24.9733V33.28C26.8 33.0933 28.4667 32.36 29.8267 31.2667L31.28 32.72C30.8933 33.1067 30.9067 33.7333 31.2933 34.12C31.68 34.5067 32.32 34.5067 32.7067 34.12L34.12 32.7067C34.5067 32.32 34.5067 31.68 34.12 31.2933C33.7333 30.9067 33.0933 30.9067 32.7067 31.2933L32.6933 31.3067L31.24 29.8533C32.3333 28.4933 33.0667 26.8267 33.2667 24.9867H35.32C35.32 25.5333 35.7733 25.9867 36.32 25.9867C36.8667 25.9867 37.32 25.5333 37.32 24.9867V22.9867C37.3333 22.4533 36.88 22 36.3333 22ZM26.3333 18.6667C27.0667 18.6667 27.6667 19.2667 27.6667 20C27.6667 20.7333 27.0667 21.3333 26.3333 21.3333C25.6 21.3333 25 20.7333 25 20C25 19.2667 25.6 18.6667 26.3333 18.6667ZM24 25.3333C23.2667 25.3333 22.6667 24.7333 22.6667 24C22.6667 23.2667 23.2667 22.6667 24 22.6667C24.7333 22.6667 25.3333 23.2667 25.3333 24C25.3333 24.7333 24.7333 25.3333 24 25.3333ZM21.6667 18.6667C22.4 18.6667 23 19.2667 23 20C23 20.7333 22.4 21.3333 21.6667 21.3333C20.9333 21.3333 20.3333 20.7333 20.3333 20C20.3333 19.2667 20.9333 18.6667 21.6667 18.6667ZM19.3333 25.3333C18.6 25.3333 18 24.7333 18 24C18 23.2667 18.6 22.6667 19.3333 22.6667C20.0667 22.6667 20.6667 23.2667 20.6667 24C20.6667 24.7333 20.0667 25.3333 19.3333 25.3333ZM21.6667 29.3333C20.9333 29.3333 20.3333 28.7333 20.3333 28C20.3333 27.2667 20.9333 26.6667 21.6667 26.6667C22.4 26.6667 23 27.2667 23 28C23 28.7333 22.4 29.3333 21.6667 29.3333ZM26.3333 29.3333C25.6 29.3333 25 28.7333 25 28C25 27.2667 25.6 26.6667 26.3333 26.6667C27.0667 26.6667 27.6667 27.2667 27.6667 28C27.6667 28.7333 27.0667 29.3333 26.3333 29.3333ZM27.3333 24C27.3333 23.2667 27.9333 22.6667 28.6667 22.6667C29.4 22.6667 30 23.2667 30 24C30 24.7333 29.4 25.3333 28.6667 25.3333C27.9333 25.3333 27.3333 24.7333 27.3333 24Z" fill="url(#paint1_linear_2863_8606)"/>
<defs>
<linearGradient id="paint0_linear_2863_8606" x1="24" y1="0" x2="24" y2="48" gradientUnits="userSpaceOnUse">
<stop stop-color="#CCEAFF"/>
<stop offset="1" stop-color="#CCEAFF" stop-opacity="0"/>
</linearGradient>
<linearGradient id="paint1_linear_2863_8606" x1="23.9935" y1="10.6667" x2="23.9935" y2="37.3333" gradientUnits="userSpaceOnUse">
<stop stop-color="#3F69EB" stop-opacity="0.5"/>
<stop offset="1" stop-color="#3F69EB"/>
</linearGradient>
</defs>
</svg>
